/* XPM */
static char *result[] = {
/* columns rows colors chars-per-pixel */
"32 512 8 1 ",
"  c black",
". c #001828",
"X c #00243D",
"o c #004076",
"O c #004682",
"+ c #2F61AA",
"@ c #3F72C3",
"# c #5782C7",
/* pixels */
"################################",
"################################",
"################################",
"################################",
"################################",
"################################",
"################################",
"################################",
"################################",
"################################",
"################################",
"################################",
"################################",
"################################",
"################################",
"################################",
"################################",
"################################",
"################################",
"################################",
"################################",
"################################",
"################################",
"################################",
"################################",
"################################",
"################################",
"################################",
"################################",
"################################",
"################################",
"################################",
"              ..oOO@@@##########",
"              ..O++@@@##########",
"          X....O++++O@@#########",
"             ..OOOOOO@@@########",
"           X.....OOO@@@@########",
"          X.X...++++O@@@@@######",
"        X ....O++++++O@@@#######",
"        X ....O++O+O++O@@#######",
"         X  ..OOOO++OO@@@@######",
"     X    X.. ..OOO+O@.@@#######",
"     .X  ..X....OOOO@.@@########",
" X   .X X .....O++++OO@@@@######",
" .X .....X.....++++++++@@@@#####",
"..X............++++O+++@@@######",
"...............OOO+OOOO@@@######",
".....++...++++O.OO.O@@@@########",
"OO+++++OOO++++++O.O@@@@@########",
"OO++++++OO+++++++.@@@@@###@#####",
"OOOOOOOOO.OOOOO++@@@@@@#########",
"@@@OOOOO@.OOOOOOOO@@@@@#########",
"@@@@@@@@@@@OOO@@@@@@#@##########",
"@@@@@@@@@@@@@@@@@@@@@###########",
"@@@@@@@@@@@@@@@@@@@###@#########",
"#@@##@@@@@@@@@@@################",
"@##@#@@#@#####@##@@#############",
"####@#@###@@####@###############",
"###########@###@################",
"################################",
"################################",
"################################",
"################################",
"################################",
"##########@@@OOO....            ",
"#########@@@@O+O....X           ",
"#########@@@@O+O....            ",
"#########@@O+++.....            ",
"######@##@@O++O..... XX         ",
"########@@@@@O+O...XX           ",
"########@@@@@O++O... X          ",
"#########@@@++++O...X           ",
"#######@##O+.+++O..X  X         ",
"########@#OO.+++O... X.         ",
"##########@O.OOOO...X.          ",
"##########..O.OO....... X  X    ",
"#########@@@..+O.......X....X...",
"##########@@+++++...............",
"#######@#@++++++++O.............",
"########@+++++O+OOO..+++....++..",
"#####@#O+++++OOOOOO+++++OO+++++O",
"#####@O+++++++OOOO+++++OO+++++OO",
"###@##OOOOOOOOOOOO+++++OO++O+OOO",
"######OOOOOOOOO@@OOOOOOO@@@OOO@@",
"##########@@@@@@@OOOOOO@@@@@@@@@",
"#########@@@@@@@@@@@OO@@@@@@@@@@",
"######@@@##@@@@@@@@#@#####@##@@#",
"##########@##@#####@@##@###@@@##",
"#############@##@######@########",
"################################",
"################################",
"################################",
"################################",
"################################",
"################################",
"################################",
"                                ",
"                                ",
"                                ",
"                                ",
"                                ",
"                                ",
"                                ",
"                           X    ",
"           XX     X      X X    ",
"             X   X X     X X    ",
"  X X    X   X   X X     X X  X ",
"  X  X   X  ..X X  X   X . .  X ",
".X...X..X.......X..........X....",
"................................",
"..................++............",
".++...++++......++++......++....",
"+++O+++++++OOO+++++++O.O++++++O.",
"++O.+++++++.OO+++++++O...++++OOO",
"OOO.O++++OOO.O.O++++OO.OOO+++OOO",
"@@O@OOOOOOOO@.OO+OOOOO.@OOOOOO@O",
"@@@@OOOOOO@@@@@OOOOO@@@@@@@@@@@@",
"@@@@@@@@@@@@@@@@@@@@@@@@@@@@@@@@",
"@@@@@@@@@@@@@@@@@@@@@@@@@@@@@@@@",
"###@@#@###@#@#####@####@@#@###@#",
"################################",
"################################",
"################################",
"################################",
"################################",
"################################",
"################################",
"################################",
"################################",
"################################",
"################################",
"################################",
"######@#########################",
"#########@########@##@##########",
"#########@##@#@#################",
"####@######@####################",
"###@#@@@@##@#@####@@#####@######",
"##@@@@@@@@@@@#@@@@@@@@##########",
"@@@@@@@@@@@@@@@@@@@@@@#@########",
"@@@@@@@@@++++@@@@+++@@@#########",
"@@O@+++@O+++++O@OO++@@@##@######",
"OOO++++OO+++++OO++++O@@#@@######",
"OOOO.OOOO+++OOOO++++O@@#########",
"OOO..O.OOOOOOO.O.OOOO@@@########",
"..........OO....OOOO@@##########",
"..........OO......O@@@#@########",
".................OO@@@##########",
".........X......OOO@@@@#########",
"     .    X......++O@@##########",
"          .....+++++O@##########",
"        XX ....++++OO@@#########",
"          XX...O++O@@@###@######",
"            X...OOO@@@#@########",
"        X  .....O.O@@@##########",
"         XX ....OOOO@@#@########",
"           X...O++++@@###@######",
"            X.O+++++O@##########",
"          X...OO++OO@@##@#######",
"            ...OOOOO.#@#########",
"            .....OO..@##########",
"            ....OOO.@@#@########",
"           X.....OO@@@@#########",
"            ....O.O@@@###@######",
"            .....OOO@@@#########",
"            ....+O++@@@#########",
"          X....++O+++@##########",
"            ..++O++++@@#@#@#####",
"          X ..OOOOO++@@#########",
"           X....OOOO@@@#########",
"          X X...OOO@@#@#########",
"           X...++++O@###########",
"            X.+++++++@@@########",
"            .O++OO+++@@###@#####",
"          X ..OO++OO@.@@@#######",
"           X....OOOO.@@@########",
"            X....OO.@@##########",
"           X......O.@@#@########",
"           .....O+++@@###@######",
"            ...+++++O@#@########",
"            ...++++++O##########",
"           X...OOO++OO@#########",
"            X...OOOOO@##@#######",
"            .....OOO@@##@#######",
"            ...++++@@@@#########",
"          XX...++O+@@@##########",
"            X...O+O++@#@########",
"          X ...++++++@##########",
"           X...+++++O@##########",
"            X..OOOOOO@@#########",
"            ....OOOO@@@#@#######",
"            .....OO@@@##########",
"            ....OOO@@@##########",
"#########@@@@OOO....            ",
"#########@@@+++O....X           ",
"########@@@+++O....X            ",
"#######@#@@++OOOX....           ",
"########@@@@@O.O.X...XX         ",
"#####@###@@@@OO..X..X        X  ",
"######@#@@@@++O......       X   ",
"###@##@#@@O+++OO......X    X    ",
"#@@@@@@@@@O+++OOX..... .   .    ",
"@@@@@@@@@@@OOOOOX...... XX .    ",
"@@@@@@@@@@@@@O........ X. .  X  ",
"@@@@@@+++O@@@O........ .. . X   ",
"@@@@@O+++O@OOO............  .   ",
"O+++OOXOOOOOO.O............. .  ",
"O+++OXOXOXOOO...................",
"OOO..X.O.OOO.......+O.++++......",
"...................++O++++O...OO",
".XX...............+++O.+++OOOOOO",
"...X..............OOO.OO++OOOOOO",
"................+++OO.OOOOO@@@@@",
"  .............++++++O@@@@@@@@@@",
"   ............OOO+++O@@@@@##@@#",
"    .. .......+++OOOOO@#@#######",
"        ......+++OOOO@@@#@@##@##",
"       . .....+OOOOOO@#@########",
"         . X....O+++.@@#########",
"           .X...O+++@@@#########",
"           .....O+++O@@#########",
"           ....O+O++OO@#########",
"            X..OOOOOOO##########",
"            .X..OOOO@@@#########",
"            ....OOO@@@##########",
"                                ",
"                                ",
"                                ",
"                                ",
"                                ",
"                                ",
"                                ",
"                                ",
"                                ",
"                                ",
"                                ",
"                  . X  . X      ",
"             XX    ..X ...X ....",
"               X ...............",
"               ..............O++",
"             X...++++O......++++",
"           X.....++++OO++.OO+++O",
"             .....+++OO++OOO++++",
"           XX.....OOOOO++OOOOO++",
"            ...++++OOOOOOO@@@OOO",
"       XXX  ...+++++OOOO@@@@@@@@",
"          XX..+O++++OO@O@@@@@@@@",
"            X..OOO++OOO@@@@@@@@@",
"         XX ....OOOOOOO@@@@@@@@@",
"           X.....OO@@@@@#@######",
"            X...++O@@@@#@@######",
"          X ..++++++@@@#########",
"           X.O+O++++O@@#@#######",
"            XOOOO+O+O@@#########",
"            ....OOOOO@@#########",
"            ....OOO@@@@#########",
"            ....OOO@@@##########",
"################################",
"################################",
"################################",
"#################@##############",
"################################",
"################################",
"#################@##@#######@###",
"#############@#######@#@#@@##@##",
"###############@##@@#@#@##@#@@##",
"############@@@#@#@@@@@@@@@@@@@@",
"###########@###@@@@@@@@@@@@@@@@@",
"#########@###@@@@@@@@@@@@@OO@@@@",
"##########@@@@@@@OO@O@O@OOOOO@@@",
"##########@#@@@@@O.OO.OOOOOOOOOO",
"########@###@@@OOOO.O.OOOOOOOOOO",
"###########@@@@..OO.OO.OOOOOOOOO",
"#######@@@#@@@OOO...............",
"###########@@@OOO...............",
"########@@@@@OOO..........      ",
"##########@@@O.O..........      ",
"########@#@@@OO........         ",
"#######@@@@@@OO.........        ",
"#########@@@@OOO.....           ",
"#######@#@@@@OOO.....           ",
"########@@@@@OOO.....           ",
"#########@@@@OO.....            ",
"#######@#@@@@OO.....            ",
"########@@@@@OOO....            ",
"########@@@@@OOO....            ",
"#######@#@@@@OO.....            ",
"#########@@@@OOO....            ",
"#########@@@@OOO....            ",
"             ...OOO@@@@#########",
"            X...O++@@@@@########",
"            X...+++@@@@#@#######",
"             X..OOO@@@@#########",
"             ..O+O++@@@@@##@####",
"            ..++++OOO@@@#@#@####",
"             .++++OOO@@@#@######",
"           X .OOOOOO@@@@####@###",
"            X...O...@@@@@#@@@@##",
"           ......O++OO@@@#######",
"       X  ......++++OO@@@@@@@@@@",
"        X.......+++OOO@++++@@@+@",
"   X    X ......OOOOO+++++++@@O@",
".   X.............OO.OOO+++O+O.O",
"..........++++........O+++OOO.OO",
".+..++++..+++O.........OOOO...OO",
"+++.+++OO++++O..........O.......",
"O+OOOOOO++++OOO.................",
"OOOOOOOO+++OOO...........       ",
"@@@OOOOOOOOO.O+++....           ",
"@@@@@@@@OOOO.O+++...            ",
"@@@@@@@@OOOOO.++O... X          ",
"@@@@@@@@@@@@@.OOO...X           ",
"##@#@@@@@@@@@O++O..X X          ",
"#@@@###@@@@@O+++.... X          ",
"#####@#@#@@@OO+O....X           ",
"#######@@@@@@OOO...X            ",
"######@##@@@@O++....            ",
"########@@@@OO+O....X           ",
"#########@@@@O.O...X.           ",
"########@@@@@++.....            ",
"########@@@@@++O....            ",
"#########@@OOO+O....XX          ",
"#######@#@@O++++...X.           ",
"#########@@@+++O....            ",
"#########@@+++++.... X          ",
"########@@O+++++....X           ",
"#########@O++++O...X            ",
"#########@@OOOOO.....           ",
"########@@@..+++..... X         ",
"#######@#@@@OO++.... X          ",
"#########@@@@OO..... X .        ",
"#########@@@OO.O..... .         ",
"######@##@@++OO...... .         ",
"######@##@++OO......  .         ",
"########@@++O++..... X          ",
"#########@OOO++..... X          ",
"#####@###@@OOO+O....X           ",
"########@@@@@OOO.....           ",
"########@@@@OOOO....            ",
"#########@@@@OOO.... X          ",
"########@@@@@OO..... X          ",
"#########@@@O++++...X           ",
"#########@@++++++...            ",
"#########@@+++OOO...            ",
"######@#@@@OOOOO....  X         ",
"########@@@OO++++... X          ",
"#######@#@@@+++++... X          ",
"#########@@@++O+++..X           ",
"#######@#@@@OOOOO+...           ",
"#######@@@@..OOOO... X          ",
"#########@@++++O....X .         ",
"#########@@++++.... .X          ",
"#########@@++OOO....X           ",
"                                ",
"                                ",
"                                ",
"                                ",
"                                ",
"                                ",
"                                ",
"                      X         ",
"                     X          ",
"               X    X           ",
"               .    .           ",
"       X  X    .X  X  X         ",
" X     .  .    .   . X          ",
"..  ... .... . . X ..           ",
".......++.......X . ...         ",
"...++O+++...........            ",
"OO+++O++++++++.....             ",
"+OO++OO+OO+++++.... X           ",
"+OOOOOOOOO++++OO...X    X       ",
"OO@@@O@@@O++++OO..X.   X        ",
"@@@@@@@@@OOOOOOO....  X         ",
"@@@@@@@@@@OOOOOO......          ",
"@@@@@@#@@@@@@OO......           ",
"#@##@@@##@@@@OOO.....X          ",
"#######@#@@@O++O....X           ",
"######@##@@@++++++.X.           ",
"######@##@@O++++++...           ",
"########@@@OOO++OO..            ",
"########@@@@@OOOO...            ",
"########@@@@++OO....XX          ",
"#########@@OOOOO...X            ",
"#########@@OOOOO....            ",
"################################",
"################################",
"################################",
"################################",
"################################",
"################################",
"################################",
"#######@#########@########@#####",
"##@##@######@#####@###@@##@#####",
"#@####@###@#@@@@####@###@###@#@@",
"@@@@@@@@@@@@@@@@@@@OO@@@@@@@@@@@",
"OOO@@@@@@@@OOO@@@OOOOO@@OOO@@@@@",
"OOOOO@@@@OOOOO@@OOOOOOO@OOOOOOO@",
"OOOOOOOOXOOOOOOOOOOOOOOOOOOOOOOO",
"OOOOXXOX.OOOOOXOOOOOOOOOOOOXOXOO",
"OOOOXO..XOOOOXOOXOOX.OXO..X.XO.O",
"..X......X..X.....X....X....X..X",
"................................",
"................................",
"  ...                      .....",
"                                ",
"                                ",
"                                ",
"                                ",
"                                ",
"                                ",
"                                ",
"                                ",
"                                ",
"                                ",
"                                ",
"                                ",
"              ..OOO@@@@@########",
"             ...O+O@@@@#########",
"            X...O+O@@@@#########",
"            ....++++@@@@########",
"            ....++++@@@##@######",
"            ....OOOOOO@@@#######",
"          XX.....++++O@@########",
"         ...X..O++++++@@###@####",
"           ....O++++OO@@@@#@#@##",
"       XXXX....OOOOOOO@@@@@@@@@@",
"           X....OOOOO@@@@@@@@@@@",
"           .X.......O++++@@@++@@",
"           .....O..+++++OOO++++@",
"           .......O++O++OO+++++O",
"          . X........OOO.O.OOOOO",
"           ..X.....O.OOO.O..OO.O",
"            ....................",
"            ....................",
"            .......  ....... ...",
"              .                 ",
"                                ",
"                                ",
"                                ",
"                                ",
"                                ",
"                                ",
"                                ",
"                                ",
"                                ",
"                                ",
"                                ",
"                                ",
"#########@@@@+OO..              ",
"########@@@@@OOO...             ",
"#########@@@++++...X            ",
"########@@@+++++..X.            ",
"########@@@OOOOO...   X         ",
"#######@@@@@@OO....  X          ",
"#######@@@@@++++.....X          ",
"#####@##@@@++++++...X           ",
"####@##@@@@O++++O.... .         ",
"#@@@@@@@@@@OO++OO.....          ",
"@@@@@@@@@+@O.OOO..... X         ",
"@@@@@@@@+++@.........X          ",
"@@@@@+++O+O++.......X           ",
"O++OO++++OOO...X....            ",
"OOOO.+++++..X.......XXX         ",
"OO.OO.OOOOOX.........           ",
"......XOO..X........            ",
".................               ",
".................               ",
"       ......                   ",
"        ....                    ",
"                                ",
"                                ",
"                                ",
"                                ",
"                                ",
"                                ",
"                                ",
"                                ",
"                                ",
"                                ",
"                                ",
"                                ",
"                                ",
"                                ",
"                                ",
"                                ",
"                                ",
"                                ",
"                                ",
"                                ",
"                                ",
"                                ",
"                                ",
"                                ",
"                                ",
"                                ",
"                                ",
"                                ",
"                                ",
"                                ",
"                                ",
"                                ",
"                                ",
"                                ",
"                                ",
"                                ",
"                                ",
"                                ",
"                                ",
"                                ",
"                                ",
"                                ",
"                                "
};
