/* XPM */
static char *result[] = {
/* columns rows colors chars-per-pixel */
"32 512 6 1 ",
"  c #5782C7",
". c black",
"X c #011828",
"o c #004076",
"O c #004682",
"+ c #3F72C3",
/* pixels */
"                                ",
"                                ",
"                                ",
"                                ",
"                                ",
"                                ",
"                                ",
"                                ",
"                                ",
"                                ",
"                                ",
"                                ",
"                                ",
"                                ",
"                                ",
"                                ",
"                                ",
"                                ",
"                                ",
"                                ",
"                                ",
"                                ",
"                                ",
"                                ",
"                                ",
"                                ",
"                                ",
"                                ",
"                                ",
"                                ",
"                                ",
"                                ",
"..............XXoOO+++          ",
"..............XXOOO+++          ",
"..........XXXXXXOOO++++         ",
".............XXXOXO+O++         ",
"...........XXXXXXOOO++++        ",
"..........XXXXXXXoOO+++  +      ",
"........X.XXXXXXOOOO+++         ",
"........X.XXXXXXOXO++++         ",
".........X..XXXXXOOOO++         ",
".....X....XXX.XXXOOOO+++        ",
".....XX..XXXXXXXOOOO++++        ",
".X...XX.X.XXXXXXXXXOOO++++      ",
".XX.XXXXXXXXXXXXXOOOO+++        ",
"XXXXXXXXXXXXXXXXOOOO++++        ",
"XXXXXXXXXXXXXXXXXOOOO+++ +      ",
"XXXXXXXXXXXXXOOXOOOO++++        ",
"OOOXOOOOOXOOOXOOOOO+++++        ",
"OOOOOOOOOOOOOOOOO++++++   +     ",
"OOOOOOOOOOO++++O+++++++         ",
"++++++O+++O++++++++++++         ",
"++++++++++++++++++++ +          ",
"+++++++++++++++++++++           ",
"+++++++++++++++++++   +         ",
" ++  +++++++++++                ",
"+  + ++ +     +  ++             ",
"    + +   ++    +               ",
"           +   +                ",
"                                ",
"                                ",
"                                ",
"                                ",
"                                ",
"          +++OOOXXXX............",
"         ++++OOOXXXX............",
"         ++++OXOXXXX............",
"         ++++OOXXXXX............",
"      +  ++++OOXXXXX.XX.........",
"        +++++OOOXXXXX...........",
"        +++++OOOXXXX.X..........",
"         +++++OXXXXXX...........",
"       +  ++++OOXXXX..X.........",
"        + +++OOOXXXX.XX.........",
"          ++++XOXXXXXX..........",
"          +++OOXXXXXXXX.X..X....",
"         +++++OOXXXXXXXXXXXXXXXX",
"          +++OOXXXXXXXXXXXXXXXXX",
"       + +++++XOOXXXXXXXXXXXXXXX",
"        + ++++OOOOXXXXXXXXXXXXXX",
"     +    ++++OOOXOOOXOOOOOXOOOO",
"     +    ++++O+OOOOOOOOOOOOOOOO",
"   +      +++++OOOOOOOOOOOOOOOOO",
"         +++++O+++++O+O+++++O+++",
"          ++++++++++++++++++++++",
"         +++++++++++++++++++++++",
"      +++  ++++++++ +     +  ++ ",
"          +  +     ++  +   +++  ",
"             +  +      +        ",
"                                ",
"                                ",
"                                ",
"                                ",
"                                ",
"                                ",
"                                ",
"................................",
"................................",
"................................",
"................................",
"................................",
"................................",
"................................",
"...........................X....",
"...........XX.....X......X.X....",
".............X...X.X.....X.X....",
"..X.X....X...X...X.X.....X.X..X.",
"..X..X...X..XXX.X..X...X.X.X..X.",
"XXXXXXXXXXXXXXXXXXXXXXXXXXXXXXXX",
"XXXXXXXXXXXXXXXXXXXXXXXXXXXXXXXX",
"XXXXXXXXXXXXXXXXXXXXXXXXXXXXXXXX",
"XXXXXXXXXXXXXXXXXXXXXXXXXXXXXXXX",
"OOXOOOXOXOXOOOXOXOXOOOXOOXOOOXOX",
"OOOXOXOOOOOXOOOOOOOXOOXOXOOOXOOO",
"OOOOOOOOOOOOOOOOOOOOOOOOOOOOOOOO",
"++O+++++O++O++O++++O++++O+O++O+O",
"++++++++++++++++++++++++++++++++",
"++++++++++++++++++++++++++++++++",
"++++++++++++++++++++++++++++++++",
"   ++ +   + +     +    ++ +   + ",
"                                ",
"                                ",
"                                ",
"                                ",
"                                ",
"                                ",
"                                ",
"                                ",
"                                ",
"                                ",
"                                ",
"                                ",
"      +                         ",
"         +        +  +          ",
"         +  + +                 ",
"    +      +                    ",
"   + ++++  + +    ++     +      ",
"  +++++++++++ ++++++++          ",
"++++++++++++++++++++++ +        ",
"+++++++++++++++++++++++         ",
"++O+++O++++O++O+++O++++  +      ",
"OOOOOOOOOOOOOOOOOO+++++ ++      ",
"OOOOXOOOXOOOXOOOOX+++++         ",
"OOOXXOXXOOOXOOXOXOO+O+++        ",
"XXXXXXXXXXXXXXXXOOOO++          ",
"XXXXXXXXXXXXXXXXXXO+++ +        ",
"XXXXXXXXXXXXXXXXXOO+++          ",
"XXXXXXXXXXXXXXXXOOO++++         ",
".....X....XXXXXXXXOO++          ",
"..........XXXXXXOOO+++          ",
"........XX.XXXXXOOOO+++         ",
"..........XXXXXXXOO+++   +      ",
"............XXXXOOO+++ +        ",
"........X..XXXXXOXO+++          ",
".........XX.XXXXXOOO++ +        ",
"...........XXXXXOOO+++   +      ",
"............XXXXXOO+++          ",
"..........XXXXXXOOO+++  +       ",
"............XXXXOOO++ +         ",
"............XXXXXOO+++          ",
"............XXXXOOOO++ +        ",
"............XXXXXOO++++         ",
"............XXXXOXO+++   +      ",
"............XXXXXOOO++          ",
"............XXXXOOO++++         ",
"..........XXXXXXOOO+++          ",
"............XXXXOOO++++ + +     ",
"..........X.XXXXXOO+++          ",
"...........XXXXXOOO++           ",
"..........X.XXXXOOO++ +         ",
"...........XXXXXXXOO+           ",
"............XXXXOOO+++ +        ",
"............XXXXXOO+++    +     ",
"..........X.XXXXOOO+++  +       ",
"...........XXXXXXXOO++          ",
"............XXXXXOO+++          ",
"...........XXXXXXXO+++ +        ",
"...........XXXXXOOO+++   +      ",
"............XXXXOOO+++ +        ",
"............XXXXOXOO++          ",
"...........XXXXXXOO++++         ",
"............XXXXOOO+++  +       ",
"............XXXXXOOO++  +       ",
"............XXXXOOO++++         ",
"..........XXXXXXXOO+++          ",
"............XXXXOOO+++ +        ",
"..........X.XXXXXXO+++          ",
"...........XXXXXXOOO++          ",
"............XXXXOOO++++         ",
"............XXXXOOO++++ +       ",
"............XXXXXOO+++          ",
"............XXXXOOO+++          ",
"         ++++OOOXXXX............",
"         ++++OOOXXXX............",
"        +++++OOXXXXX............",
"       + ++++OOOXXXXX...........",
"        +++++OXOXXXXXXX.........",
"     +   ++++OOXXXXXX........X..",
"      + +++++OXXXXXXX.......X...",
"   +  + +++++OOXXXXXXXX....X....",
" +++++++++++OOOOXXXXXX.X...X....",
"++++++++++++OXOOXXXXXXX.XX.X....",
"+++++++++++++OXXXXXXXX.XX.X..X..",
"+++++++++++++OXXXXXXXX.XX.X.X...",
"+++++++OO++OOOXXXXXXXXXXXX..X...",
"OOOOOOXOOOOOOXOXXXXXXXXXXXXX.X..",
"OOOXOXOXOXOOOXXXXXXXXXXXXXXXXXXX",
"OOOXXXXOXOOOXXXXXXXXXXXXXXXXXXXX",
"XXXXXXXXXXXXXXXXXXXXOOXOOXOXXXOO",
"XXXXXXXXXXXXXXXXXXXXOOOXOXOOOOOO",
"XXXXXXXXXXXXXXXXXXOOOOOOOOOOOOOO",
"XXXXXXXXXXXXXXXXXOXOO+++O+++++++",
"..XXXXXXXXXXXXXXXOOO++++++++++++",
"...XXXXXXXXXXXXXXXOO+++++++  ++ ",
"....XX.XXXXXXXXXXOO++++ +       ",
"........XXXXXXXXXOO+++++ ++  +  ",
".......X.XXXXXXXOOOO++ +        ",
".........X..XXXXOOO++++         ",
"...........XXXXXOOO++++         ",
"...........XXXXXOOO++++         ",
"...........XXXXXOOO++++         ",
"............XXXXOOO+++          ",
"............XXXXOOO++++         ",
"............XXXXOOO+++          ",
"................................",
"................................",
"................................",
"................................",
"................................",
"................................",
"................................",
"................................",
"................................",
"................................",
"................................",
"..................X.X..X.X......",
".............XX....XXX.XXXX.XXXX",
"...............X.XXXXXXXXXXXXXXX",
"...............XXXXXXXXXXXXXXXXX",
".............XXXXXXXXXXXXXXXXXXX",
"...........XXXXXXXXXXXXOOXOOXOOO",
".............XXXXXXXXOXXOOOOOOXO",
"............XXXXXXXXXOOOXOOOOOOO",
"............XXXXXXXXXOOOOO++++++",
".......XXX..XXXXXXOOOXOO++++++++",
"..........XXXXXXXOOXOO+O++++++++",
"............XXXXXOOO++++++++++++",
".........XX.XXXXOXO+++++++++++++",
"...........XXXXXXOO+++++ +      ",
"............XXXXXOO++++ ++      ",
"..........X.XXXXOOO++++         ",
"...........XXXXXXOO++++ +       ",
"............XXXXXOO++++         ",
"............XXXXOOO++++         ",
"............XXXXOOO++++         ",
"............XXXXOOO+++          ",
"                                ",
"                                ",
"                                ",
"                 +              ",
"                                ",
"                                ",
"                 +  +       +   ",
"             +       + + ++  +  ",
"               +  ++ + +  + ++  ",
"            +++ + ++++++++++++++",
"           +   +++++++++++++++++",
"         +   +++++++++++++++++++",
"          +++++++OO+O+O++++O++++",
"          + +++++OXOOXOOOOXOOOOO",
"        +   +++OOOOXOXOOOXOOXOOO",
"           ++++XXOOXOOXOXOOOOXOO",
"       +++ +++OOOXXXXXXXXXXXXXXX",
"           +++OOOXXXXXXXXXXXXXXX",
"        +++++OOOXXXXXXXXXX......",
"          +++OXOXXXXXXXXXX......",
"        + +++OOXXXXXXXX.........",
"       ++++++OOXXXXXXXXX........",
"         ++++OOOXXXXX...........",
"       + ++++OOOXXXXX...........",
"        +++++OOOXXXXX...........",
"         ++++OOXXXXX............",
"       + ++++OOXXXXX............",
"        +++++OOOXXXX............",
"        +++++OOOXXXX............",
"       + ++++OOXXXXX............",
"         ++++OOOXXXX............",
"         ++++OOOXXXX............",
".............XXXOOO++++         ",
".............XXXOOO+++++        ",
".............XXXOOO++++ +       ",
".............XXXXOO++++         ",
".............XXXOOO++++++  +    ",
"............XXXXXOO+++++ + +    ",
".............XXXOOO+++++ +      ",
".............XXXOOO+++++    +   ",
"............XXXXOXO++++++ ++++  ",
"...........XXXXXXOO++O+++       ",
"..........XXXXXXOOO+OO++++++++++",
"........XXXXXXXXXXOOXO+O++++++O+",
"........X.XXXXXXXOOXXO+O++++++O+",
"X...XXXXXXXXXXXXXXXXXOOOO+O+OOXO",
"XXXXXXXXXXXXXXXXXXXXXXOXOXXOOXOO",
"XXXXXXXXXXXXXXXXXXXXXXXOOOOXXXOO",
"OOXXXXOXOOOXXXXXXXXXXXXXXXXXXXXX",
"OOOOOOOXOOXXXXOXXXXXXXXXXXXXXXXX",
"OOOOOOOOOOOXOOXXXXXXXXXXX.......",
"+++++++OOOOOOOXOXXXXX...........",
"++++++++++++OOOOXXXX............",
"++++++++++++OOOXXXXX.X..........",
"+++++++++++++OOOXXXXX...........",
"  + +++++++++OOXXXXX.X..........",
" +++   ++++++OOOXXXX.X..........",
"     + + ++++OOOXXXXX...........",
"       ++++++OOOXXXX............",
"      +  ++++OOOXXXX............",
"        ++++OOOOXXXXX...........",
"         ++++OXOXXXXX...........",
"        +++++OOXXXXX............",
"        +++++OOOXXXX............",
"         ++++OOOXXXXXX..........",
"       + ++++OOOXXXXX...........",
"         +++OOOOXXXX............",
"         ++++OOOXXXX.X..........",
"        +++++OOXXXXXX...........",
"         +++OOOOXXXX............",
"         ++++OOOXXXXX...........",
"        +++++OOXXXXXX.X.........",
"       + ++++OOOXXXX.X..........",
"         ++++OOXXXXX.X.X........",
"         ++++OXOXXXXX.X.........",
"      +  +++OOOXXXXXX.X.........",
"      +  ++++OXXXXXX..X.........",
"        +++++OOXXXXX.X..........",
"         ++++OOXXXXX.X..........",
"     +   ++++OOOXXXXX...........",
"        +++++OOOXXXXX...........",
"        ++++OOOOXXXX............",
"         ++++OXOXXXX.X..........",
"        +++++OOXXXXX.X..........",
"         ++++OOOXXXXX...........",
"         +++OOOOXXXX............",
"         ++++OOXXXXX............",
"      + +++++OOOXXXX..X.........",
"        +++++OOOXXXX.X..........",
"       + +++OOOXXXXX.X..........",
"         ++++OXOXXXXX...........",
"       + ++++OOXXXXXX...........",
"       ++++++OOOXXXX.X..........",
"         +++OOOOXXXXX.X.........",
"         ++++OOXXXX.XX..........",
"         ++++OOOXXXXX...........",
"................................",
"................................",
"................................",
"................................",
"................................",
"................................",
"................................",
"......................X.........",
".....................X..........",
"...............X....X...........",
"...............X....X...........",
".......X..X....XX..X..X.........",
".......X..X....X...X.X..........",
"XX..XXX.XXXX.X.X...XX...........",
"XXXXXXXXXXXXXXXXX.X.XXX.........",
"XXXXXXXXXXXXXXXXXXXX............",
"OOOOXOOOXOOXXXXXXXX.............",
"OOOOOOOOOOXOXXXXXXX.X...........",
"OOOOOOOOOOOOOXOXXXXX....X.......",
"+++++O+++++OOOOOXXXX...X........",
"++++++++++++OOOOXXXX..X.........",
"++++++++++++OOOOXXXXXX..........",
"++++++ ++++++OOXXXXXX...........",
" +  +++  ++++OOOXXXXX...........",
"       + ++++OOOXXXXX...........",
"      +  ++++OOOXXXXX...........",
"      +  ++++OOXXXXXX...........",
"        +++++OOOXXXX............",
"        +++++OOOXXXX............",
"        +++++OOOXXXX............",
"         ++++OOOXXXX............",
"         ++++OOOXXXX............",
"                                ",
"                                ",
"                                ",
"                                ",
"                                ",
"                                ",
"                                ",
"       +         +        +     ",
"  +  +      +     +   ++  +     ",
" +    +   + ++++    +   +   + ++",
"++++++++++++++++++++++++++++++++",
"++++++++++++++++++++++++++++++++",
"+++O+++++O++++++O++++O++++O+++O+",
"OOOOOOOOXOOOOOOOOOOOOOOOOOOOOOOO",
"OXOOXXOXXOOXOXXOOOXOXOOOXOOXOXOO",
"OXXOXOXXXOOOXXOOXOOXXOXOXXXXXOXO",
"XXXXXXXXXXXXXXXXXXXXXXXXXXXXXXXX",
"XXXXXXXXXXXXXXXXXXXXXXXXXXXXXXXX",
"XXXXXXXXXXXXXXXXXXXXXXXXXXXXXXXX",
"..XXX......................XXXXX",
"................................",
"................................",
"................................",
"................................",
"................................",
"................................",
"................................",
"................................",
"................................",
"................................",
"................................",
"................................",
"..............XXOOO+++++        ",
".............XXXOOO++++         ",
"............XXXXOOO++++         ",
"............XXXXOOO+++++        ",
"............XXXXOOO++++  +      ",
"............XXXXOOO++++++       ",
"..........XXXXXXXOOO++++        ",
".........XXXXXXXXOXO+O++   +    ",
"...........XXXXXOXXOO+++++ + +  ",
".......XXXXXXXXXOXOOO+++++++++++",
"...........XXXXXXXOOO+++++++++++",
"...........XXXXXXXXXOO++++++++++",
"...........XXXXXOXXOO++OOO++++++",
"...........XXXXXXXOOOOOOXOOOOOOO",
"..........X.XXXXXXXXXOXOXOXOOOOO",
"...........XXXXXXXXOXOOXXOXXOOXO",
"............XXXXXXXXXXXXXXXXXXXX",
"............XXXXXXXXXXXXXXXXXXXX",
"............XXXXXXX..XXXXXXX.XXX",
"..............X.................",
"................................",
"................................",
"................................",
"................................",
"................................",
"................................",
"................................",
"................................",
"................................",
"................................",
"................................",
"................................",
"         ++++OOOXX..............",
"        +++++OOOXXX.............",
"         ++++OOXXXXX............",
"        +++++OOXXXXX............",
"        +++++OOXXXX...X.........",
"       ++++++OOXXXX..X..........",
"       ++++++OOXXXXXXX..........",
"     +  ++++OOOOXXXXX...........",
"    +  +++++XOOXXXXXX.X.........",
" ++++++++++OXOOXXXXXXX..........",
"+++++++++O+OXXOXXXXXX.X.........",
"++++++++OXO+XXXXXXXXXX..........",
"+++++OO+OOOOOXXXXXXXX...........",
"OOOOOOOOOXOOXXXOXXXX............",
"OOOOXOOOOXXXXXXXXXXXXXX.........",
"OOXOOXXXXOXXXXXXXXXXX...........",
"XXXXXXXXXXXXXXXXXXXX............",
"XXXXXXXXXXXXXXXXX...............",
"XXXXXXXXXXXXXXXXX...............",
".......XXXXXX...................",
"........XXXX....................",
"................................",
"................................",
"................................",
"................................",
"................................",
"................................",
"................................",
"................................",
"................................",
"................................",
"................................",
"................................",
"................................",
"................................",
"................................",
"................................",
"................................",
"................................",
"................................",
"................................",
"................................",
"................................",
"................................",
"................................",
"................................",
"................................",
"................................",
"................................",
"................................",
"................................",
"................................",
"................................",
"................................",
"................................",
"................................",
"................................",
"................................",
"................................",
"................................",
"................................",
"................................",
"................................",
"................................"
};
