/* XPM */
static char *result[] = {
/* columns rows colors chars-per-pixel */
"32 512 14 1 ",
"  c #150916",
". c #281329",
"X c #3D113F",
"o c #6E1D68",
"O c #772079",
"+ c #792078",
"@ c #81237A",
"# c #996C43",
"$ c #A5A732",
"% c #DED931",
"& c #9A369D",
"* c #A91EBF",
"= c #9A3BA8",
"- c #BC3ACD",
/* pixels */
"@@@@@@@@@@@@@@@@@@@@@@@@@@@@@@@@",
"@@@@@@@@@o@@@@@@@@@@@@@@@@@@@@@@",
"@@@@@@@@@@@@@@@@@@@@@@@@@@@@@@@@",
"@@@@@@@@@@@@@@@@@@@@@@@@@@@@@@@@",
"@@@@@@@@@@@@@@@@@@@@@@@@@@@@@+@@",
"@@@@@@@@@@@@@@@@@@O@@@@@@@@@@@@@",
"@@@@@@@@@@@@@@@@@@O@@@@@@@@@@@@@",
"@@@@@@@@@@@@@@@@@@O@@@@@@@@@o@@@",
"@@@@@@@@@@@@@@@@@@O@@@@@@@@@@@@@",
"@@@@@@@@@@@@@@@@@@O@@@@@@@@@@@@@",
"@@@@@@@@@@@@@@@@@@O@@@@@@@@@@@@@",
"@@@@@@@@@@@@@@@@@@O@@@@@@@@@@@@@",
"@@@@@@@@@@@OOOOOOOO@@@@@@@@@@@@@",
"@@@@@@@@@@@@@@@@@&O@o@@@@@@@@@@@",
"@@@@@@o@@@@@@@@@@OO@@@@@@@@@@@@@",
"@@@@@@@@@@@@@@@@@OO@@@@@@@@@@@@@",
"@@@@@@@@@@@@@@@@@@O@@@@@@@@@@@@@",
"@@@@@@@@@@@@@@@@@@O@@@@@@@@@@@@@",
"@@@@@@@@@@@@@@@@@@O&OOO@@@@@@@@@",
"@@@@@@@@@@@@@@@@@@O@@@@@@@@@@@@@",
"@@@@@@@@@@@@@@@@@@O@@@@@@@@@@@@@",
"@@@@@@@@@@@@@@@@@@@@@@@@@@@@@@@@",
"@@@@@@@@@@@@@@@@@@@@@@@@@@@@@@@@",
"@@@@@@@@@@@@@@@@@@@@@@@@@@@@@@@@",
"@@@@@@@@@@@@@@@@@@@@@@@@@@@@@@@@",
"@@@o@@@@@@@@@o@@@@@@@@@@@@@@@@@@",
"@@@@@@@@@@@@@@@@@@@@@@@@@o@@@@@@",
"@@@@@@@@@@@@@@@@@@@@@@@@@@@@@@@@",
"@@@@@@@@@@@@@@@@@@@@@@@@@@@@@@@@",
"@@@@@@@@@@@@@@@@@@@@@@@@@@@@@@@@",
"@@@@@@@@@@@@@@@@@@@@@@@@@@@@@@@@",
"@@@@@@@@@@@@@@@@@@@@@@@@@@@@@@@@",
"              .X@@@@@@@@@@@@@@@@",
"              .X@@@@@@@@@@@@@@@@",
"              .X@@@@@@@@@@@@@@@@",
"              .X@@@@@@@@@@@@@@@@",
"              .X@@@@@@@@@o@@O@@@",
"            .X.X@@@@@@@@@@@@O@@@",
"              .X@@@@@@@@@@@@O@@@",
"              .X@@@@@@@@@@@@O@@@",
"              .X@@@@@@@@@@@@O@@@",
"              .X@@@@@@@@@@@@O@@@",
"              .X@@@@@@@@@@@&O@@@",
"       .      .X@@@@@@OOOOOOO@@@",
"       X      .X@@@@@@@@@@@@O@@@",
"              .X@@@@@@@@@@@@O@@@",
"..............X*@@@@@@@@@@@@O@@@",
"XXXXXXXXXXXXX%$-@@@@@@@@@@@@O@@@",
"******=-*#$%%$**@@@@@@@@@@@@O@@@",
"******=*****##**@@@@@@@@@@@@O@@@",
"******=******#**@@@@@@@@@@@@O@@@",
"******=******=-*@@@@@@@@@@@@O@@@",
"======*======***@@@@@@@@@@o@@@@@",
"**---***----=**##@@@@@@@@@@@@@@@",
"************=*#$@@@@@@@@@@@@@@@@",
"************=*@@@@@@@@@@@@@@@@@@",
"@@@@@@@@@@@@@@@@@@@@@@@@@@@@@@@@",
"@@@@@@@@@@@@@@@@@@@@@@@@@@@@@@@@",
"@@@@@@@@@@@@@@@@@@@@@@@@@@@@@@@@",
"@@@@@@o@@@@@@@@@@@o@@@@@@@@@@@@@",
"@@@@@@@@@@@@@@@@@@@@@@@@@@@@@@@@",
"@@@@@@@@@@@@@@@@@@@@@@@@@@@@@@@@",
"@@@@@@@@@@@@@@@@@@@@@@@@@@@@@@@@",
"@@@@@@@@@@@@@@@@@@@@@@@@@@@@@@@@",
"@@@@@@@@@@@@@@@@X.              ",
"@@@@@@@@@@@@@@@@X.              ",
"@@@@@@@@@@@@@@@@X.              ",
"@@@@@@@@@@@@@@@@XX.             ",
"@@@@@@@@@@@@O@@@X...            ",
"@@@@@@@@@@@@O@@@X.              ",
"@@@@@@@@@@@@O@@@X.              ",
"@@@@@@@@@@@@O@@@X.              ",
"@@@@@@@@@@@@O@@@X.              ",
"@@@@@@@@@@@@O@@@X.              ",
"@@@@@o@@@@@@@@@@X.              ",
"@@@@@@@@@@@@@@@@X.              ",
"@@@@@@@@@@@@@@@@X.              ",
"@@@@@@O@@@@@@@@@X.         .    ",
"@@@@@@O@@@@@@@@@*-.........X....",
"@@@@@@O@@@@@@@@@**XXXXXXXXXXXXXX",
"@@@@@@OOOOO@@@@@*=-******=-*****",
"@@@@@@&@@@@@@@@@*=*******=******",
"@@@@@@O@@@@@@@@@*=*******=******",
"@@@@@@O@@@@@@@@#*===****=*======",
"@@@@@@O@@@@@@@@%*=**=====*----**",
"@@@@@@O@@@@@@##$***=*----*******",
"@@@@@@O@@@@@@@@$$**=************",
"@@@@@@O@@@@@@@@@##*=************",
"@@@@@@O@@@@@@@@@#@@#@@@@@@@@@@@@",
"@@@@@@O@@@@@@@@@@@@@@@@@@@@@@@@@",
"@@@@@@O@@@@@@@@@@@@@@@@@@@@@@@@@",
"@@@@@@@@@@@@@@@@@@@@@@@@@@@@@@@@",
"@@@@@@@@@@@@@@@@@@@@@@@@@@@@@@@@",
"@@@@@@@@@@@@@@@@@@@@@@@@@@@@@@@@",
"@@@@@@@@@@@@@@o@@@@@@@@@@@@@@@@@",
"@@@@@@@@@@@@@@@@@@@@@@@@@@@@@@@@",
"                                ",
"                                ",
"                                ",
"                                ",
"                                ",
"                                ",
"                                ",
"                                ",
"                                ",
"                         .      ",
"                         X      ",
"    .                           ",
"   X                            ",
"                                ",
"...................X............",
"XXXXXXXXXXXXXXXXXXXXXXXXXXXXXXXX",
"-*----*=*******--=******=------*",
"*******=*********=******=*******",
"*******=****************=*******",
"********==============**=*******",
"========---*******--=***========",
"-----**=************=---********",
"*******=************=***********",
"*******=************=***********",
"@@@@@@@@@@@@@@@@@@@@@@@@@@@@@@@@",
"@@@@@@@@@@@@@@@@@@@@@@@@@@@@@@@@",
"@@@@@@@@@@@@@@@@@@@@@@@@@@@@@@@@",
"@@@@@@@@@@@@o@@@@@@@@@@@@@@@@@@@",
"@@@@@@@@@@@@@@@@@@@@@@@@@@@@o@@@",
"@@@@@@@@@@@@@@@@@@@@@@@@@@@@@@@@",
"@@@@@@@@@@@@@@@@@@@@@@@@@@@@@@@@",
"@@@@@@@@@@@@@@@@@@@@@@@@@@@@@@@@",
"@@@@@@@@@@@@@@@@@@@@@@@@@@@@@@@@",
"@@@@@@@@@@@@@@@@@@@@@@@@@@@@@@@@",
"@@@@@@@@O@@@@@@@@@@@@@@@@@@@@@@@",
"@@@@@@@@O@@@@@@@@@@@@@@@@@@@@@@@",
"@@@@@@@@O@@@@@@@@@@@@@@@O@@@@@@@",
"@@@@@@@@O@@@@@o@@@@@@@@@O@@@@@@@",
"@@@@@@@@O@@@@@@@@@@@@@@@O@@@@@@@",
"@@@@@@@@O@@@@@@@@@@@@@@&O@@@@@@@",
"@@@@@@@&O&@@@@@@OOOOOOOOO@@@@@@@",
"OOOOOOOOOOOOO@@@@@@@@@@@O@@@@@@@",
"@@@@@@@@@@@@@@@@@@@@@@@@O@@@@@@@",
"@@@@@@@@@@@@@@@@@@@@@@@@O&@@@@@@",
"@@@@@@@@@@@@@@@@@@@@@@@@OOOOOO@@",
"@@@@@@@@@@@@@@@@@@@@@@@@O@@@@@@@",
"@@@@@@@@@@@@@@@@@o@@@@@@O@@@@@@@",
"@@@@@@@@@@@@@@@@@@@@@@@@O@@@@@@@",
"XXXXXXXXXXXXXX@@@@@@@@@@O@@@@@@@",
"..........X...X@@@@@@@@@O@@@@@@@",
"              .X@@@@@@@@O@@@@@@@",
"  .X.         .X@@@@@@@@O@@@@@@@",
"   .        . .X@@@@@@@@@@@@@@@@",
"            X .X@@@@@@@@@@@@@@@@",
"            . .X@@@@@@@@@@@@@@@@",
"              .X@@@@@@@@@@@@@@@@",
"              .X@@@@@@@o@@@@@@@@",
"              .X@@@@@@@@@@@@@@@@",
"              .X@@@@@@@@@@@+@@@@",
"              .X@@@@@@@@@@@@@@@@",
"            .X.X#@@@@@@@@@@@@@@@",
"              .X@@@@@@@@@@@@@@@@",
"              .X@@@@@@@@@@@@@@@@",
"              .X@@@@@@@@@@@@@@@@",
"              .X@@@@@@@@@@@@@@@@",
"              XX@@@@@@@@@@@@@@@@",
"              .X@@@@@@@@@@@@@@@@",
"              .X@@@@@@@@@@@@@@@@",
"              .X@@@@@@@@@@@@@@@@",
"              .X@@@@@@OOOOOO@@@@",
"          .   .X@@@@@@@@@@@@@@@@",
"              .X@@@@@@@@@@@@@@@@",
"              .X@@@@@@@@@@@@@@@@",
"             .XX@@@@@@@@@@@@@@@@",
"              .X@@@@@@@@@@@@@@@@",
"              .X@@@@@@@@@@@@@@@@",
"              .X@@@@@@@@@@@@@@@@",
"              .X@@@@@O@@@@@@@@@@",
"              .X@@@@@O@@@@@@@@@@",
"              .X@@@@@O@@@@@@@@@@",
"         X    .X@@@@@O&@@@@@@@@@",
"         .    .X@@@@@OOOOOOOO@@@",
"              .X@@@@@O@@@@@@@@@@",
"              .X@@@@@O@@@@@@@@@@",
"              .X@@@@@O@@@@@@@@@@",
"              .X@@@@@O@@@@@@@@@@",
"              .X@@@@@O@@@@@@@@@@",
"              .X@@@@@@@@@@@@@@@@",
"              .X@@@@@@@@@@@@@@@@",
"             .XX@@@@@@@@@@@@@@@@",
"              .X@@@@@@@@@@o@@@@@",
"              .X@@@@@@@@@@@@@@@@",
"              .X@@@@@@@@@@@@@@@@",
"              .X@@@@@@@@@@@@@@@@",
"              .X@@@@@@@@@@@@@@@@",
"              .X@@@@@@@@@@@@@@@@",
"@@@@@@@@@@@@@@@@X.              ",
"@@@@@@@@@@@@@@@@X.              ",
"@@@@@@@@@@@@@@@@X.              ",
"@@@@@@@@@@@@@@@@X.              ",
"@@@@@@@@@@@@@@@@X.              ",
"@@@@@@@@@@@@@@@@X.X.            ",
"@@@@@@@@@@@@@@@@X.              ",
"@@@@@@@@@@@@@@@@X.              ",
"@@@@@@@@o@@@@@@@X.              ",
"@@@@@@@@@@@@@@@@X.              ",
"@@@@@@@@@@@@@@@@X.              ",
"@@@@@@@@@@@@@@@@X.              ",
"@@@@@@@@@@@@@@@@X.              ",
"@@@@@@@@@@@@@@@@X.        .     ",
"@@@@@@@@@@@@@@@X. ........X.....",
"@@@@@@@@@@@@@@X. .XXXXXXXXXXXXXX",
"XXXXXXXXXXXXXX. .%$$#-*******=-*",
"...X.......... .$$#=*********=**",
"   .          .X#**=*********=**",
"              .X*#*=*********=**",
"            X .X*=***********===",
"            . .X=-**=========***",
"              .X****--******=***",
"              .X************=***",
"              .X**@@@@@@@@@@@@@@",
"              .X*@@@@@@@@@@@@@@@",
"              .X@@@@@@@@@@@@@@@@",
"              .X@@@@@@@@@@@@@@@@",
"              .X@@@@@@@&OOOO@@@@",
"              .X@@@@@@@@@@@@@@@@",
"              .X@@@@@@@@@@@@@@@@",
"              .X@@@@@@@@@@@@@@@@",
"                                ",
"                                ",
"                                ",
"                                ",
"                                ",
"                                ",
"                                ",
"                                ",
"                                ",
"                                ",
"                                ",
"                                ",
"                                ",
"                          .     ",
"                  ........X.....",
"                 .XXXXXXXXXXXXXX",
"                .X-#$%$#********",
"               .X****#******=***",
"              .X*****#******=***",
"              .X************=***",
"              .X**===*******=***",
"              .X*=-***==========",
"              .X=******-********",
"              .X%%%#****#*******",
"              .X$##%#@@@@@@@@@@@",
"             .XX#@@@@@@@@@@@@@@@",
"              .X@@@@@@@@@@@@@@@@",
"              .X@@@@@@o@@@@@@@@@",
"              .X@@@@@@@@@@@&@@@@",
"              .X@@@@@@@OOOOOOO@@",
"              .X@@@@@@@@@@@@@@@@",
"              .X@@@@@@@@@@@@@@@@",
"@@@@@@@@@@@@@@@@@@@@@@@@@@@@@@@@",
"@@@@@@@@@@@@@@@@@@@@@@@@@@@@@@@@",
"@@@@@@@@@@@@@@@@@@@@@@@@@@@@@@@@",
"@@@@@@@@@@@@@@@@@@@@@@@@@@@@@@@@",
"@@@@@@@@@@@O@@@@@@@@@@@@@@@@@@@@",
"@@@@@@@@@@@O@@@@@@@@@@O@@@@@@@@@",
"@@@@@@@@@@@O@@@@@@@@@@O@@@@@@@@@",
"@@@@@@@@@@@O@@@@@@@@@@O@@@@@@@@@",
"@@@@@@@@@@@O@@@@@@@@@@O@@@@@@@@@",
"@@@@@@@@@@@O@OOOOOOOOOO@@@@@@@@@",
"@@@@@@@@@@@O@@@@@@@@@&O@@@@@@@@@",
"@@@@@@@@@@@O@@@@@@@@@OO@@@@o@@@@",
"@@@@@@@@@@@O@@@@@@@@@@O@@@@@@@@@",
"@@@@@@@OOO@O@@@@@@@@@@O@@@@@@@@@",
"@@@@@@@@@@&O@@@@@@@@@@O@@@@@@@@@",
"@@@@@@@@@@@O@@@@@@@@@@@@@@@@@@@@",
"@@@@@@@@@@@@@@@@@@XXXXXXXXXXXXXX",
"@@@@@@@@@@@@@@@@@X.....X........",
"@@@@@@@@@@@@@@@@X.     .        ",
"@@@@@@@@@@@@@@@@X.              ",
"@@@@@@@@@@@@@@@@X.              ",
"@@o@@@@@@@@@@@@@X.              ",
"@@@@@@@@@@@@@@@@XX.             ",
"@@@@@@@@@O@@@@@@X.              ",
"@@@@@@@@@O@@@@@@X.              ",
"@@@@@@@@@O@@@@@@X.              ",
"@@@@@@@@@O@@@@@%X.    .         ",
"@@@@@@@@@O@@@@#$X.              ",
"@@@@@@@@@O@@@@@#X.    X.        ",
"@@@@OOOOO@@@@@@@X.              ",
"@@@@@@@@@@@@@@@@X.              ",
"@@@@@@@@@@@@@@@@X.              ",
"              .X@@@@@@@@@@@@@@@@",
"              .X@@@@@@@@@@@@@@@@",
"              .X@@@@@@@O@@@@@@@@",
"              .X@@@@@@@O@@@@@@@@",
"              .X@@@@@@@O@@@o@@@@",
"              .X@@@@@@@O@@@@@@@@",
"              .X@@@@@@@O@@@@@@@@",
"              .X@@@@@@@OOOOOO@@@",
"              .X@@@@@@@O&@@@@@@@",
"              .X@@@@@@@O@@@@@@@@",
"              .X@@@@@@@O@@@@@@@@",
"              .X@@@@@@@O@@@@@@@@",
"              .X@@@@@@@@@@@@@@@@",
"              .X@@@@@@@@@@@@@@@@",
".............. .X@@@@@@@@@@@@@@@",
"XXXXXXXXXXXXXX. .X@@@@@@@@@@@@@@",
"*******=--##%%X. .XXXXXXXXXXXXXX",
"*******=****%%$X. ..............",
"*******=***##%$%X               ",
"*******=*****=#*X.              ",
"*======*====*##*X.              ",
"*-----***--=**=*X.              ",
"***********=*-*=X.              ",
"***********=****X.              ",
"@@@@@@@@@@@@@@**X.              ",
"@@@@@@@@@@@@@@@*X.              ",
"@@@@@@@@@@@@@@@@X.              ",
"@@@@@@@@@@@@@@@@X.              ",
"@@@@@@@@o@@@@@@@X.              ",
"@@@@@@@@@@@@@@@@X.              ",
"@@@@@@@@@@@@@@@@X.              ",
"@@@@@@@@@@@@@@@@X.              ",
"@@@@@@@@@@@@@@@@X.              ",
"@@@@@@@@@@@@@@@@X.              ",
"@@@@@@@@@@@@@@@@X.              ",
"@@@@@@@@@@@@@@@@X.              ",
"@@@@@@@@@@@O@@@@X.              ",
"@@@OOOOOOOOO@@@@X.              ",
"@@@@@@@@@@@O@@@@X.              ",
"@@@@@@@@@@@O@@@@X.              ",
"@@@@@@@@@@@O@@@@X.              ",
"@@@@@@@@@@@O@@@@X.              ",
"@@@@@@@@@@@O@@@@X.  X.          ",
"@@@@@@@@@@@O@@@@X.              ",
"@@@@@@@@@@@O@@@@X.              ",
"@@@@@@@@@@&O@@@@X.              ",
"@@OOOOOOOOOO@@@@X.              ",
"@@@@@@@@@@@@@@@@X.              ",
"@@@@@@@@@@@@@@@@X.              ",
"@@@@@@@@@@@@@@@@X. .            ",
"@@@@@@@@@@@@@@@@XX              ",
"@@@@@@@@@@@@@@@@X.              ",
"@@@@@@@@@@@@@@@@X.              ",
"@@@@@@@@@@@@@@@@X.              ",
"@@@@@@@@@@@@@@@@X.              ",
"@@@@@@@@@@@@@@@@X.              ",
"@@@@@@@@@@@@@@@@X.              ",
"@@@@@@@o@@@@@@@@X.              ",
"@@@@@@@@@@@@@@@@X.              ",
"@@@@@@@@@@@@@@@@X.   .          ",
"@@@@@@@@@@@@@@@@X.  X           ",
"@@@@@@@@@@@@@@@@X.              ",
"@@@@@@@@@@@@@@@@X.              ",
"@@@@@@@@@@@@@@@@X.              ",
"                                ",
"                                ",
"                                ",
"                                ",
"                                ",
"                                ",
"                                ",
"                                ",
"                                ",
"                                ",
"                                ",
"                                ",
"                                ",
"                                ",
"..............                  ",
"XXXXXXXXXXXXXX.                 ",
"****-----=***#$.                ",
"*********=*#%#%%.               ",
"*********=****$#X.              ",
"*********=****=#X.              ",
"*========*====-*X.              ",
"****-----**-****X.              ",
"************=***X.              ",
"************=***X.              ",
"@@@@@@@@@@@@@@**X.              ",
"@@@@@@@@@@@@@@@*X.              ",
"@@@@@@@@@@@@@@@@X.              ",
"@@@@@@@@O@@@@@@@X.              ",
"@@@@@@@@O@o@@@@@X.              ",
"@@@@@@@@O@@@@@@@X.              ",
"@@@@@@@@@@@@@@@@X.              ",
"@@@@@@@@@@@@@@@@X.              ",
"@@@@@@@@@@@@@@@@@@@@@@@@@@@@@@@@",
"@@@@@@@@@@@@@@@@@@@@@@@@@@@@@@@@",
"@@@@@@@@@@@@@@@@@@@@@@@@@@@@@@@@",
"@@@@@O@@@@@@@@@@@@@O@@@@@@@@@@@@",
"@@@@@O@@@@@@@@@@@@@O@@@@@@@@@@@@",
"@@@@@O@@@@@@@@@@@@@O@@@@@@@@@@@@",
"@@@@@OOOOOOOOOOOOO@O@@@@@@@@@@@@",
"@@@@@O&@@@@@@@@@@@@O@@@@@@@o@@@@",
"@@@@@O@@@@@@@@@@@@@O@@@@@@@@@@@@",
"@@@@@O@@@@@@@@@@@@@O@@@@@@@@@@@@",
"@@@@@O@@@@@@@@@@@@@O@@@@@@@@@@@@",
"@@@@@@@@@@@@@@@@@@@OOOOOOOO@@@@@",
"@@@@@@@@@@@@@@@@@@@@@@@@@@@@@@@@",
"@@@@@@@@@@@@@@@@@@@@@@@@@@@@@@@@",
"@@@@@@@@@@@@@@@@@@@@@@@@@@@@@@@@",
"@@@@@@@@@@@@@@@@@@@@@@@@@@@@@@@@",
"XXXXXXXXXXXXXXXXXXXXXXXXXXXXXXXX",
".....X..................X.......",
"     .                          ",
"                        .       ",
"                                ",
"               X.               ",
"                                ",
"                                ",
"                                ",
"                                ",
"                                ",
"                                ",
"                                ",
"                                ",
"                                ",
"                                ",
"              .X@@@@@@@@@@@@@@@@",
"              .X@@@@@@@@@@@@@@@@",
"             ..X@@@@@@@@@@@@@@@@",
"              XX@@@@@@@@@@@@@@@@",
"              .X@@@@@@@@@@@@@@@@",
"              .X@@@@@@@@@@@@@@@@",
"              .X@@@@@@@@@@@@@@@@",
"              .X@@@@@@@@@@@@@@@@",
"              .X@@@@@@@@@@@@@@@@",
"              .X@@@@o@@@@@@@@@@@",
"              .X@@@@@@@@@@@@@@@@",
"              .X@@@@@@@@@@@@@@@@",
"              .X@@@@@@@@@@@@@@@@",
"              .X@@@@@@@@@@@@@@@@",
"           .X  .X@@@@@@@@@@@@@@@",
"                .X@@@@@@@@@@@@@@",
"                 .XXXXXXXXXXXXXX",
"                  ...........X..",
"                             .  ",
"                                ",
"                                ",
"                      X         ",
"                      .         ",
"                                ",
"                                ",
"                                ",
"                                ",
"                                ",
"                                ",
"                                ",
"                                ",
"                                ",
"@@@@@@@@@@@@@@@@X.              ",
"@@@@@@@@@@@@@@@@X.              ",
"@@@@@@@@@@@@@@@@X. X.           ",
"@@@@@@@@@O@@@@@@X.              ",
"@@@@@o@@@O@@@@@@X.              ",
"@@@@@@@@@O@@@@@@X.              ",
"@@@@@@@@@O@@@@@@X.              ",
"@@OOOOOOOO@@@@@@X.              ",
"@@@@@@@@&O@@@@@@XX.             ",
"@@@@@@@@@O@@@@@@X.              ",
"@@@@@@@@@O@@@@@@X.              ",
"@@@@@@@@@O@@@@@@X.              ",
"@@@@@@@@@@@@@@@@X.              ",
"@@@@@@@@@@@@@@@@X.              ",
"@@@@@@@@@@@@@@@X.               ",
"@@@@@@@@@@@@@@X.                ",
"XXXXXXXXXXXXXX.                 ",
"...........X..                  ",
"                                ",
"            .                   ",
"                                ",
"                                ",
"                                ",
"                                ",
"                                ",
"                                ",
"                                ",
"                                ",
"                                ",
"                                ",
"                                ",
"                                ",
"                                ",
"                                ",
"                                ",
"                                ",
"                                ",
"                                ",
"                                ",
"                                ",
"                                ",
"                                ",
"                                ",
"                                ",
"                                ",
"                                ",
"                                ",
"                                ",
"                                ",
"                                ",
"                                ",
"                                ",
"                                ",
"                                ",
"                                ",
"                                ",
"                                ",
"                                ",
"                                ",
"                                ",
"                                ",
"                                ",
"                                ",
"                                "
};
