/* XPM */
static char *_fcfd33ca3a347d4c42a9c1128da1817GU4uhvBEmlrRIWcr[] = {
/* columns rows colors chars-per-pixel */
"32 32 5 1 ",
"  c None",
". c #003058",
"X c #004682",
"o c #2A5EB0",
"O c #3F72C3",
/* pixels */
"                                ",
"                                ",
"                                ",
"                                ",
"                                ",
"                                ",
"                                ",
"                                ",
"                                ",
"                                ",
"                                ",
"                                ",
"                                ",
"                                ",
"                                ",
"              oXXX  oo          ",
"             oXX...ooo          ",
"          OOo.XX..XXXX          ",
"         OOOoXOoo.XXX.          ",
"        OOooOOOoo.oooXX         ",
"        OooXOoooXXXXXXX.        ",
"          X.ooXXX......         ",
"             ....               ",
"                                ",
"                                ",
"                                ",
"                                ",
"                                ",
"                                ",
"                                ",
"                                ",
"                                "
};
