/* XPM */
static char *e65bba68758c461fa702889fadeeb894Luw1LaMYewav8coC[] = {
/* columns rows colors chars-per-pixel */
"32 32 19 1 ",
"  c None",
". c #083247",
"X c #08324B",
"o c #003058",
"O c #0C544F",
"+ c #054152",
"@ c #15794F",
"# c #197E4A",
"$ c #0E6050",
"% c #066659",
"& c #78B73D",
"* c #7CB73C",
"= c #31A879",
"- c #4C9A45",
"; c #87C238",
": c #91C735",
"> c #004682",
", c #2A5EB0",
"< c #3F72C3",
/* pixels */
"                                ",
"                                ",
"                                ",
"                                ",
"                                ",
"                   :            ",
"                  ::            ",
"                 :&&            ",
"                :&--            ",
"             ; :&--- *          ",
"             ; &--#&:-          ",
"            ;&O--##:$@          ",
"            &&O--#=:-$&         ",
"            --O&#=:#-O.         ",
"            -$O&#=:-$+.         ",
"           $-$.#=:$-+%.         ",
"           ++....:++%.          ",
"          <+.o>>ooX%%.          ",
"         <<.:><,,o>>>o          ",
"        <<,,<<<,:-,,,>>         ",
"        <,,><,,,-+>>>>>o        ",
"          >o,,>>>oooooo         ",
"             oooo               ",
"                                ",
"                                ",
"                                ",
"                                ",
"                                ",
"                                ",
"                                ",
"                                ",
"                                "
};
