/* XPM */
static char *result[] = {
/* columns rows colors chars-per-pixel */
"16 64 9 1 ",
"  c None",
". c #37160D",
"X c #420A08",
"o c #421108",
"O c #501906",
"+ c #5C1810",
"@ c #5C1E10",
"# c #532214",
"$ c #68240F",
/* pixels */
"                ",
"                ",
"                ",
"                ",
"                ",
"                ",
"     $$         ",
"     $$$ $      ",
"  $$$$$O $$$    ",
"  $$$OOOO$$$    ",
"  OOO  O  O$O   ",
"  O         OO  ",
"                ",
"                ",
"                ",
"                ",
"                ",
"                ",
"                ",
"                ",
"       @@       ",
"       @oo      ",
"      o@oo      ",
"   @   oo@ @    ",
"   @@@o o@@@    ",
"   oooo@oooo    ",
"    oooooo      ",
"       oo       ",
"       oo       ",
"                ",
"                ",
"                ",
"                ",
"                ",
" ++             ",
"  ++            ",
"   X++          ",
"    X++     +++ ",
"   + X++  +++XX+",
"    ++X+ +++XX  ",
"     +XX++XXX   ",
"  +++X+XXXX     ",
"XXXXX+XXXX      ",
"       XX++++   ",
"          X+++  ",
"            X+  ",
"             XX ",
"                ",
"                ",
"                ",
"                ",
"                ",
"  # .#          ",
"  ## .      .   ",
"  .. .#   #.    ",
"    ##.#.#..    ",
"    ...# ..     ",
"    .####.      ",
"     .....      ",
"        ..      ",
"                ",
"                ",
"                ",
"                "
};
