/* XPM */
static char *result[] = {
/* columns rows colors chars-per-pixel */
"8 128 10 1 ",
"  c None",
". c #031119",
"X c #001828",
"o c #EF7C25",
"O c #F48024",
"+ c #FF8F21",
"@ c #FFA43F",
"# c #004682",
"$ c #2F61AA",
"% c #3F72C3",
/* pixels */
"        ",
"        ",
"  %%%%  ",
"%%      ",
"      %%",
"    %   ",
"        ",
"        ",
"        ",
"        ",
"  X     ",
"   X$$  ",
"  $#$## ",
" $##    ",
"        ",
"        ",
"        ",
"        ",
" %    %%",
"        ",
"  %%%% %",
"%%    % ",
"   %    ",
"        ",
"        ",
"        ",
"   %%%  ",
"      %%",
"%%%     ",
"        ",
"        ",
"        ",
"        ",
"      @ ",
"  @  X  ",
"   X X  ",
"   X%%  ",
"%%%   % ",
"        ",
"        ",
"        ",
"        ",
"        ",
"     %  ",
"  %%  % ",
"        ",
"        ",
"        ",
"        ",
"        ",
"O       ",
" X      ",
" X $$  X",
" $$$$#X ",
"$$$###X ",
"        ",
"        ",
"        ",
"      O ",
" X   X  ",
"  X  X  ",
"  %X%%  ",
"%% X    ",
"        ",
"        ",
"   OX @ ",
"     X  ",
"     .. ",
"      . ",
"      . ",
"      . ",
"      . ",
"        ",
"  XX @  ",
"   .X   ",
"   .X   ",
"    .   ",
"    ..  ",
"     .  ",
"     .  ",
"        ",
"   X    ",
"   X    ",
"    X   ",
"   ..   ",
"   ..   ",
"     .  ",
"     .  ",
"        ",
"   o    ",
"        ",
"    .   ",
"     .  ",
"      . ",
"      . ",
"        ",
"        ",
"    .X  ",
"X  ..   ",
" . ..   ",
"  ..    ",
"  ..    ",
"  .     ",
"  .     ",
"        ",
"        ",
"    +   ",
"   .    ",
"   .    ",
"   .    ",
"        ",
"        ",
"  X     ",
"  XX    ",
"   XX   ",
"   ..   ",
"   ..   ",
"   ..   ",
"    ..  ",
"     .  ",
"        ",
"XX     X",
" XX   XX",
" .X  X..",
" .. X.. ",
"  ....  ",
"   ..   ",
"   ..   "
};
