/* XPM */
static char *_278ff0188404403b054bf0db2e634acClt6KPjua2IesgXZ[] = {
/* columns rows colors chars-per-pixel */
"32 128 15 1 ",
"  c None",
". c #630D17",
"X c #09354C",
"o c #FF5A29",
"O c #FF622C",
"+ c #FF692F",
"@ c #FF7B35",
"# c #FF8D3C",
"$ c #FE923E",
"% c #FE923F",
"& c #FE9340",
"* c #FE9542",
"= c #004D83",
"- c #3F72C3",
"; c #FCEAD2",
/* pixels */
"                                ",
"                                ",
"                                ",
"                                ",
"                                ",
"                                ",
"              ****              ",
"            &******&            ",
"           &********&           ",
"          &&$$####$$&&          ",
"         $##@@@@@@@##$$         ",
"        $++++++++++++++$        ",
"        $oo;+++++++++;o$        ",
"        ooo;ooooooooo;oo        ",
"       #oooooooooooooooo#       ",
"       #oooooooooooooooo#       ",
"       #ooooo.ooo.o.oooo#       ",
"       oooo++.+.+.o.++ooo       ",
"       oo+++..........+oo       ",
"        +++.O.O.O.O.O.++        ",
"        @++++++++++++++@        ",
"        $$@@@@@+++++@@@$        ",
"      --=$$$$$@@@@@@$$$=--      ",
"         XXXXXXXXXXXXXX         ",
"                                ",
"                                ",
"                                ",
"                                ",
"                                ",
"                                ",
"                                ",
"                                ",
"                                ",
"                                ",
"                                ",
"                                ",
"                                ",
"                                ",
"               ****             ",
"             &******&           ",
"            &********&          ",
"           &&$$####$$&&         ",
"          $##@@@@@@@##$$        ",
"         $++++++++++++++$       ",
"         $oo;+++++++++;o$       ",
"         oooooooooooooooo       ",
"         oooooooooooooooo#      ",
"        #ooooooooo.oooooo#      ",
"        #ooooo.o.o.o.oooo#      ",
"        oooo++........+ooo      ",
"        oo+++..........+oo      ",
"        o+++.O.O.O.O.O.++       ",
"        o@++++++++++++++@       ",
"        $$@@@@@+++++@@@$        ",
"      --=$$$$$@@@@@@$$$=--      ",
"         XXXXXXXXXXXXXX         ",
"                                ",
"                                ",
"                                ",
"                                ",
"                                ",
"                                ",
"                                ",
"                                ",
"                                ",
"                                ",
"                                ",
"                                ",
"                                ",
"                                ",
"                                ",
"                                ",
"               ****             ",
"             &******&           ",
"            &********&          ",
"           &&$$####$$&&         ",
"          $#&@@@@@@@##&$        ",
"         $++O+++++++++O+$       ",
"         oooo@ooooooooo@o @     ",
"        #oooooooooooooooo#      ",
"      @ #oooooooooooooooo#      ",
"        oooo+++++++++++ooo      ",
"       ooo++++.+++++++++ooo     ",
"       oo+++.O.O.O.O.O.++oo     ",
"        o@++++++++++++++@o      ",
"         $$@@@@@+++++@@@$       ",
"      --=$$$$$@@@@@@$$$=--      ",
"         XXXXXXXXXXXXXX         ",
"                                ",
"                                ",
"                                ",
"                                ",
"                                ",
"                                ",
"                                ",
"                                ",
"                                ",
"                                ",
"                                ",
"                                ",
"                                ",
"                                ",
"                                ",
"              ****              ",
"            &******&            ",
"           &********&           ",
"          &&$$####$$&&          ",
"         $##@@@@@@@##$$         ",
"        $++++++++++++++$ @      ",
"     @  $oo;+++++++++;o$        ",
"        oooooooooooooooo        ",
"       #oooooooooooooooo#       ",
"       #oooooooooooooooo#       ",
"       oooo++.+++.o.++ooo       ",
"       oo++++.+.+.O.+++oo       ",
"       o+++.O.O.O.O.O.++o       ",
"       o@++++++++++++++@o       ",
"        $$@@@@@+++++@@@$        ",
"      --=$$$$$@@@@@@$$$=--      ",
"         XXXXXXXXXXXXXX         ",
"                                ",
"                                ",
"                                ",
"                                ",
"                                ",
"                                ",
"                                ",
"                                "
};
