/* XPM */
static char *c7058c87cf3046f4eb3079f60ef15b15DSAiCr8nQ2kHZzDY[] = {
/* columns rows colors chars-per-pixel */
"32 160 9 1 ",
"  c None",
". c #0B1616",
"X c #001828",
"o c #102D40",
"O c #1D394C",
"+ c #23445B",
"@ c #004682",
"# c #496C84",
"$ c #81A8C3",
/* pixels */
"                                ",
"                                ",
"                                ",
"                                ",
"                                ",
"       $$+++++++++++++++o       ",
"      $OOOOOOOOOOOOOOOOOOo      ",
"      $O.Xooooooooooooo.OX@     ",
"      #OXOOOOOO+XOOOOOOoOX@     ",
"      $OoOOOOOOoOOOOOOO#Oo@     ",
"      +OoOOOOOO+XOOOOOO+OX@     ",
"      +OoOOOOOOoOOOOOOO+Oo@     ",
"      +OoOOOOOO+XOOOOOO+Oo@     ",
"      +OoOOOOOOoOOOOOOO+Oo@     ",
"      +OoOOOOOO+XOOOOOO+Oo@     ",
"      +OoOOOOOOoOOOOOOO+Oo@     ",
"      +OoOOOOOO+XOOOOOO+Oo@     ",
"      +OoOOOOOOoOOOOOOO+Oo@     ",
"      +OoOOOOOO+XOOOOOO+Oo@     ",
"      +OoOOOOOOoOOOOOOO#Oo@     ",
"      +OoOOOOOO+XOOOOOO#Oo@     ",
"      +OoOOOOOOoOOOOOOO#Oo@     ",
"      +OoOOOOOO+XOOOOOO$Oo@     ",
"      +O.o#+++++++++###.Oo@     ",
"      oOOOOOOOOOOOOOOOOOOo@     ",
"       oXXoXooooooooooooo@      ",
"        @@@@@@@@@@@@@@@@@       ",
"                                ",
"                                ",
"                                ",
"                                ",
"                                ",
"                                ",
"                                ",
"                                ",
"                                ",
"                                ",
"       $$+++++++++++++++o       ",
"      $OOOOOOOOOOOOOOOOOOo      ",
"      $O.Xooooooooooooo.OX@     ",
"      #OXOOOOO+X+XOOOOOoOX@     ",
"      $OoOOOOOoOXOOOOOO#Oo@     ",
"      +OoOOOOO+X+XOOOOO+OX@     ",
"      +OoOOOOOoOXOOOOOO+Oo@     ",
"      +OoOOOOO+X+XOOOOO+Oo@     ",
"      +OoOOOOOoOXOOOOOO+Oo@     ",
"      +OoOOOOO+X+XOOOOO+Oo@     ",
"      +OoOOOOOoOXOOOOOO+Oo@     ",
"      +OoOOOOO+X+XOOOOO+Oo@     ",
"      +OoOOOOOoOXOOOOOO+Oo@     ",
"      +OoOOOOO+X+XOOOOO+Oo@     ",
"      +OoOOOOOoOXOOOOOO#Oo@     ",
"      +OoOOOOO+X+XOOOOO#Oo@     ",
"      +OoOOOOOoOXOOOOOO#Oo@     ",
"      +OoOOOOO+X+XOOOOO$Oo@     ",
"      +O.o#+++++++++###.Oo@     ",
"      oOOOOOOOOOOOOOOOOOOo@     ",
"       oXXoXooooooooooooo@      ",
"        @@@@@@@@@@@@@@@@@       ",
"                                ",
"                                ",
"                                ",
"                                ",
"                                ",
"                                ",
"                                ",
"                                ",
"                                ",
"                                ",
"       $$+++++++++++++++o       ",
"      $OOOOOOOOOOOOOOOOOOo      ",
"      $O.Xooooooooooooo.OX@     ",
"      #OXO+.........+XOoOX@     ",
"      $OoOoO.........OO#Oo@     ",
"      +OoO+.........+XO+OX@     ",
"      +OoOoO.........OO+Oo@     ",
"      +OoO+.........+XO+Oo@     ",
"      +OoOoO..X......OO+Oo@     ",
"      +OoO+X........+XO+Oo@     ",
"      +OoOoO.........OO+Oo@     ",
"      +OoO+.........+XO+Oo@     ",
"      +OoOoO.........OO+Oo@     ",
"      +OoO+.........+XO+Oo@     ",
"      +OoOoO......X..OO#Oo@     ",
"      +OoO+...X.....+XO#Oo@     ",
"      +OoOoO.........OO#Oo@     ",
"      +OoO+.........+XO$Oo@     ",
"      +O.o#+++++++++###.Oo@     ",
"      oOOOOOOOOOOOOOOOOOOo@     ",
"       oXXoXooooooooooooo@      ",
"        @@@@@@@@@@@@@@@@@       ",
"                                ",
"                                ",
"                                ",
"                                ",
"                                ",
"                                ",
"                                ",
"                                ",
"                                ",
"                                ",
"       $$+++++++++++++++o       ",
"      $OOOOOOOOOOOOOOOOOOo      ",
"      $O..ooooooooooooo.OX@     ",
"      #O..............+oOX@     ",
"      $OoO.............#Oo@     ",
"      +Oo.............++OX@     ",
"      +OoO.....X.......+Oo@     ",
"      +Oo.............++Oo@     ",
"      +OoO.............+Oo@     ",
"      +Oo.............++Oo@     ",
"      +OoO.............+Oo@     ",
"      +Oo.............++Oo@     ",
"      +OoO..........X..+Oo@     ",
"      +Oo....X........++Oo@     ",
"      +OoO.............#Oo@     ",
"      +Oo.............+#Oo@     ",
"      +OoO.............#Oo@     ",
"      +Oo.............+$Oo@     ",
"      +O.o#+++++++++###.Oo@     ",
"      oOOOOOOOOOOOOOOOOOOo@     ",
"       oXXoXooooooooooooo@      ",
"        @@@@@@@@@@@@@@@@@       ",
"                                ",
"                                ",
"                                ",
"                                ",
"                                ",
"                                ",
"                                ",
"                                ",
"                                ",
"                                ",
"       $$+++++++++++++++o       ",
"      $OOOOOOOOOOOOOOOOOOo      ",
"      $O..ooooooooooooo.OX@     ",
"      #O...............oOX@     ",
"      $Oo..............#Oo@     ",
"      +Oo..............+OX@     ",
"      +Oo..............+Oo@     ",
"      +Oo..............+Oo@     ",
"      +Oo..............+Oo@     ",
"      +Oo..............+Oo@     ",
"      +Oo..............+Oo@     ",
"      +Oo..............+Oo@     ",
"      +Oo..............+Oo@     ",
"      +Oo..............+Oo@     ",
"      +Oo..............#Oo@     ",
"      +Oo..............#Oo@     ",
"      +Oo..............#Oo@     ",
"      +Oo..............$Oo@     ",
"      +O.o#+++++++++###.Oo@     ",
"      oOOOOOOOOOOOOOOOOOOo@     ",
"       oXXoXooooooooooooo@      ",
"        @@@@@@@@@@@@@@@@@       ",
"                                ",
"                                ",
"                                ",
"                                ",
"                                "
};
