/* XPM */
static char *result[] = {
/* columns rows colors chars-per-pixel */
"32 128 28 1 ",
"  c None",
". c #04021A",
"X c #FF9D3D",
"o c #032D52",
"O c #004682",
"+ c #067AFF",
"@ c #072031",
"# c #00BEFF",
"$ c #CF4B0D",
"% c #AB3A0D",
"& c #082A48",
"* c #2E1914",
"= c #04141F",
"- c #5A1909",
"; c #652A1B",
": c #3F72C3",
"> c #5C361D",
", c #2D1F1B",
"< c #031019",
"1 c #0B151D",
"2 c #0A151D",
"3 c #0A151E",
"4 c #09151E",
"5 c #08141E",
"6 c #07141E",
"7 c #06141E",
"8 c #060200",
"9 c #F5481B",
/* pixels */
"                                ",
"          .                     ",
"          .                     ",
"          .                     ",
"          XXXXXXXXXXXX          ",
"         XoooooOOOOOOOO         ",
"        Xoo++++@@@@@@##O        ",
"        Xoo++o@@@@@@@@#@        ",
"        Xoo++o@@@@@@@@O@        ",
"        $oo+oo@@@@@@@@O@        ",
"        Xooooo@@@@@@@@O@        ",
"        $oo+oo@@@@@@@@#@        ",
"        %ooooo@@@@@@@@O@        ",
"        X@oooo@@@@@@@@O@        ",
"        %@@o&o@@@@@@@@O@        ",
"        *%@@oo@@@@@@@@O@        ",
"         **@@oo@@@@@@O.         ",
"          *==========.          ",
"         XX$.********$.         ",
"        XXXXX.$$$$$$.XX$        ",
"        $$$.$.XXXXXX.$$$        ",
"        -%*-%+......#%**        ",
"        *-**...........*        ",
"        ***;;%%%%%%%%;*.        ",
"          ;;;;;;;;;;;;          ",
"          ************          ",
"          $$        $$          ",
"          **        **          ",
"          ..OOOOOOOO..          ",
"         :OOOOOOOOOOOO:         ",
"          :OOOOOOOOOO:          ",
"                                ",
"                                ",
"                                ",
"          .                     ",
"          .                     ",
"          .                     ",
"          XXXXXXXXXXXX          ",
"         XoooooOOOOOOOO         ",
"        Xoo++++@@@@@@##O        ",
"        Xoo++o@@@@@@@@#@        ",
"        Xoo++o@@@@@@@@O@        ",
"        $oo+oo@@@@@@@@O@        ",
"        Xooooo@@@@@@@@O@        ",
"        $oo+oo@@@@@@@@#@        ",
"        %ooooo@@@@@@@@O@        ",
"        X@oooo@@@@@@@@O@        ",
"        %@@o&o@@@@@@@@O@        ",
"        *%@@oo@@@@@@@@O@        ",
"         **@@oo@@@@@@O.         ",
"         X>,<123456678.         ",
"        XXXXX.$$$$$$.XX$        ",
"        $$$.$.XXXXXX.$$$        ",
"        -%*-%+......#%**        ",
"        *-**...........*        ",
"        ***;;%%%%%%%%;*.        ",
"          ;;;;;;;;;;;;          ",
"          ************          ",
"          $$        $$          ",
"          **        **          ",
"          ..OOOOOOOO..          ",
"         :OOOOOOOOOOOO:         ",
"          :OOOOOOOOOO:          ",
"                                ",
"                                ",
"                                ",
"          .                     ",
"          .                     ",
"          .                     ",
"          XXXXXXXXXXXX          ",
"         XoooooOOOOOOOO         ",
"        Xoo++++@@@@@@##O        ",
"        Xoo++o@@@@@@@@#@        ",
"        Xoo++o@@@@@@@@O@        ",
"        $oo+oo@@@@@@@@O@        ",
"        Xooooo@@@@@@@@O@        ",
"        $oo+oo@@@@@@@@#@        ",
"        %ooooo@@@@@@@@O@        ",
"        X@oooo@@@@@@@@O@        ",
"        %@@o&o@@@@@@@@O@        ",
"        *%@@oo@@@@@@@@O@        ",
"         **@@oo@@@@@@O.         ",
"          *==========.          ",
"         XX$.********$.         ",
"        XXXXX.$$$$$$.XX$        ",
"        $$$-%+......#%$$        ",
"        -%**..........**        ",
"        *-*;;%%%%%%%%;.*        ",
"        ***;;;;;;;;;;;*.        ",
"          ************          ",
"          $$        $$          ",
"          **        **          ",
"          ..OOOOOOOO..          ",
"         :OOOOOOOOOOOO:         ",
"          :OOOOOOOOOO:          ",
"                                ",
"                                ",
"          9                     ",
"          .                     ",
"          .                     ",
"          XXXXXXXXXXXX          ",
"         XoooooOOOOOOOO         ",
"        Xoo++++@@@@@@##O        ",
"        Xoo++o@@@@@@@@#@        ",
"        Xoo++o@@@@@@@@O@        ",
"        $oo+oo@@@@@@@@O@        ",
"        Xooooo@@@@@@@@O@        ",
"        $oo+oo@@@@@@@@#@        ",
"        %ooooo@@@@@@@@O@        ",
"        X@oooo@@@@@@@@O@        ",
"        %@@o&o@@@@@@@@O@        ",
"        *%@@oo@@@@@@@@O@        ",
"         **@@oo@@@@@@O.         ",
"          *==========.          ",
"          $$.********$          ",
"         XXXX.$$$$$$.X.         ",
"        XXX.$.XXXXXX.$X$        ",
"        $$$-%+......#%$$        ",
"        -%**..........**        ",
"        *-*;;%%%%%%%%;.*        ",
"        ***;;;;;;;;;;;*.        ",
"          ************          ",
"          $$        $$          ",
"          **        **          ",
"          ..OOOOOOOO..          ",
"         :OOOOOOOOOOOO:         ",
"          :OOOOOOOOOO:          ",
"                                "
};
