/* XPM */
static char *result[] = {
/* columns rows colors chars-per-pixel */
"32 128 17 1 ",
"  c None",
". c #04021A",
"X c #04141F",
"o c #2E1914",
"O c #072031",
"+ c #5A1909",
"@ c #652A1B",
"# c #032D52",
"$ c #AB3A0D",
"% c #CF4B0D",
"& c #FF9D3D",
"* c #004682",
"= c #0058A2",
"- c #3F72C3",
"; c #067AFF",
": c #00BEFF",
"> c #F5481B",
/* pixels */
"                                ",
"        .                       ",
"         ..                     ",
"          &&&&&&&&&&&&          ",
"         &#####********         ",
"        &##:;;;OOOOOO::*        ",
"        &##;;#OOOOOOOO:O        ",
"        &##;;#OOOOOOOO*O        ",
"        %##;##OOOOOOOO*O        ",
"        &#####OOOOOOOO*O        ",
"        %#####OOOOOOOO*O        ",
"        $##;##OOOOOOOO:O        ",
"        &O####OOOOOOOO*O        ",
"        $OO###OOOOOOOO*O        ",
"        o$OO##OOOOOOOO*O        ",
"         ooOO##OOOOOO*.         ",
"          oXXXXXXXXXX.          ",
"        &&&%.oooooooo%. %o      ",
"       &&%%&&.%%%%%%.&%&oo      ",
"      &&%o%.%.&&&&&&.%%%oo      ",
"      %%o o+$;......:$ooo       ",
"      oo  oo..........          ",
"          o@@$$$$$$$$@          ",
"          @@%@@@@@@@@@          ",
"          o%%$oooooooo          ",
"            $oo   .@@o          ",
"            o.    .oo           ",
"                                ",
"            =========           ",
"         --==========--         ",
"          --========--          ",
"                                ",
"                                ",
"         .                      ",
"        . .                     ",
"          .                     ",
"          &&&&&&&&&&&&          ",
"         &#####********         ",
"        &##;;;;OOOOOO::*        ",
"        &##;;#OOOOOOOO:O        ",
"        &##;;#OOOOOOOO*O        ",
"        %##;##OOOOOOOO*O        ",
"        &#####OOOOOOOO*O        ",
"        %##;##OOOOOOOO:O        ",
"        $#####OOOOOOOO*O        ",
"        &O####OOOOOOOO*O        ",
"        $OO###OOOOOOOO*O        ",
"        o$OO##OOOOOOOO*O        ",
"         ooOO##OOOOOO*.         ",
"          oXXXXXXXXXX.          ",
"         &&%.oooooooo%          ",
"        &&%@@.%%%%%%.&          ",
"        &%%o@.&&&&&&.%@o        ",
"         %oo$;......:$@o        ",
"          oo..........          ",
"          o@@$$$$$$$$@          ",
"          @@@@@@@@@@@@%         ",
"          o%oooooooooo@         ",
"          %%       .@o          ",
"          $$       .o           ",
"          oo***======           ",
"         -..****=====--         ",
"          -***======--          ",
"                                ",
"                                ",
"        >                       ",
"         ..                     ",
"          &&&&&&&&&&&&          ",
"         &#####********         ",
"        &##:;;;OOOOOO::*        ",
"        &##;;#OOOOOOOO:O        ",
"        &##;;#OOOOOOOO*O        ",
"        %##;##OOOOOOOO*O        ",
"        &#####OOOOOOOO*O        ",
"        %#####OOOOOOOO*O        ",
"        $##;##OOOOOOOO:O        ",
"        &O####OOOOOOOO*O        ",
"        $OO###OOOOOOOO*O        ",
"        o$OO##OOOOOOOO*O        ",
"         ooOO##OOOOOO*.         ",
"          oXXXXXXXXXX.          ",
"          &&%oooooooo%          ",
"          &&%@@%%%%%.&          ",
"          &%%+o@@&&&.%          ",
"          o+%+o.....:$          ",
"          oo..........          ",
"          o@@$$$$$$$$@          ",
"          %%@@@@@@@@@@%@        ",
"          %$@oooooooo%%@o       ",
"         $$@@         @o.       ",
"         .@@           .        ",
"                                ",
"            =========           ",
"         --==========--         ",
"          --========--          ",
"                                ",
"                                ",
"         .                      ",
"        . .                     ",
"          .                     ",
"          &&&&&&&&&&&&          ",
"         &#####********         ",
"        &##;;;;OOOOOO::*        ",
"        &##;;#OOOOOOOO:O        ",
"        &##;;#OOOOOOOO*O        ",
"        %##;##OOOOOOOO*O        ",
"        &#####OOOOOOOO*O        ",
"        %##;##OOOOOOOO:O        ",
"        $#####OOOOOOOO*O        ",
"        &O####OOOOOOOO*O        ",
"        $OO###OOOOOOOO*O        ",
"        o$OO##OOOOOOOO*O        ",
"         ooOO##OOOOOO*.         ",
"          oXXXXXXXXXX.          ",
"          &&%oooooooo%          ",
"          %&%%o%%%%%.&          ",
"          %%%oo&&&&&.%@o        ",
"          o+%o......:$@o        ",
"          oo..........          ",
"          o@@$$$$$$$$@          ",
"          %%@@@@@@@@@@          ",
"          %$$ooooooooo          ",
"           $$$     @@o          ",
"           .@@     @@           ",
"           .@=====*oo           ",
"         --=====***..*-         ",
"          --=====****-          ",
"                                "
};
