/* XPM */
static char *_f2d745c9c2d40dde8d5a31da5054763DtQXmzMjTxbUwZgF[] = {
/* columns rows colors chars-per-pixel */
"128 64 13 1 ",
"  c None",
". c #001828",
"X c #031928",
"o c #431E1E",
"O c #FD5929",
"+ c #FF5A29",
"@ c #FF692F",
"# c #FD7A35",
"$ c #FF7B35",
"% c #FE923F",
"& c #FFBE2B",
"* c #FE9542",
"= c #FCEAD2",
/* pixels */
"                                            *********                                                                           ",
"                                     *********+++++$***                                                                         ",
"                                 %%%%%$$***++++++++++$***                                                                       ",
"                             %%%%$$$$$$$$++++++++++++++$**                                                                      ",
"                          %%%%%$$$$$$$+++++++++++++++++++**           %+                                                        ",
"                          %%%%%$$$$$$$+++++++++++++++++++$**          +XX     &%+                                               ",
"                        %%%%%$$$$$++@@@@+++++++++++++++++++$*******    X     %%+++                                              ",
"                      %%&&&%%$$$$@@@@@@@+++++++++++===++++++++++++++**     ++++++XX                                             ",
"                      %%&&&%%$$$@@@@@@@@+++++++++++====+++++++++++++++*     XXXXXX                                              ",
"                     %%&&&%%$$$$@@@@@@@@@+++++++++++====+++++++++++++++$$$$$$$$$$$$$$$$$$$$$$$$$$$$$$$$$$$$$$$$$$$$$$$$$$$$     ",
"                    %%%&&%%%$$$$@@@@@@@@@+++++++++++++==+++++++++++++++++++++++++++++++++++++++++++++++++++++++++++++++++++$$   ",
"                    %%%&%=%%$$$@@@@@@@@@@++++++++++++++++++++++++++++++++++++++++++++++++++++++++++++++++++++++++++++++++++++$  ",
"                   %%%%%====@@@@@@@@@@@@+++++++++++++++++++++++++++++++++++++++++++++++++++++++++++++++++++++++++++++++++++++$X ",
"                  %%%%%====@@@@@@@@@@@++++++++++++++++++++++++++++++++++++++++++++++++++++++++++++++++++++++++++++++++++++++++%X",
"                  %%%%%===@@@@@@@@@@@@++++++++++++++++++++++++++++++++++++++++++++++++++++++++++++++++++++++++++++++++++++++++%X",
"                 %%%%%===@@@@@@@@@@@@+++++++++++++++++++++++++++++++++++++++++++++++++++++++++++++++++++++++++++++++++++++++++%X",
"                 %%%$$==@@@@@@@@@@@@@+++++++++++++++++++++++++++++++++++++++++++++++++++++++++++++++++++++++++++++++++++++++++%X",
"                %%%%$$@@@@@@@@@@@@@@++++++++++++++++++++++++++++++++++++++++++++++++++++++++++++++++++++++++++++++++++++++++++%X",
"                %%%%@$@@@@@@@@@@@@++++++++++++++++++++++++++++++++++++++++++++++++++++++++++++++++++++++++++++++++++++++++++++%X",
"                %%%%@$@@@@@@@@@@@@++++++++++++++++++++++++++++++++++++++++++++++++++++++++++++++++++++++++++++++++++++++++++++%X",
"               %%%%@@@@@@@@@@@@@@++++++++++++++++++++++++++++++++++++++++++++++++++++++++++++++++++++++o++++o++oooo++o++++o+++%X",
"               %%%%@@@@@@@@@@@@++++++++++++++++++++++++++++++++++++++++++++++++++++++++++++++++++++++++o$+++o$o&%%$o+o$+++o$++%X",
"         %     %%%%@@@@@@@@@@+++++++++++++++o++++++++++++++++++++++++++++++++++++++++++++++++++++++++++o$+++o$o%+++o$o$+++o$++%X",
"        %+X    %%%@@@+@@@@++++++++++++++++++oo++++++++++++++++++++++++++++++++++++++++++++++++++++++++++ooooo$o%+++o$o$+++o$++%X",
"        %++    %%%@@@+@@@@+++++++++ooo+++++ooo+++++++++++++++++++++++++++++++++++++++++++++++++++++++++++$%$o$o$+++o$o$+++o$++%X",
"        &+++   %%%@@+++++++++++++++ooo+++++oooo++++++++++++++++++++++++++++++++++++++++++++++++++++++++o++++o%o$+++o%o$+++o%++%X",
"        +++XX  %%%@@++++++++++++++oooo+++++oooo+++++++++++++++++++++++++++++++++++++++++++++++++++++++++oooo&%+oooo&%+oooo&%++%X",
"         +$X   %%%@@++++++++++++++ooooo++++oooo++++oo++++++++++++++++++++++++++++++++++++++++++++++++++++$$%%+++$$$%+++$$%%+++%X",
"          XX   %%@@@++++++++++++++ooooo++++ooooo@++oo+++++++++++++++++++++++++++++++++++++++++++++++++++++++++++++++++++++++++%X",
"              %%%@@@++++++++++++++oooooo+++ooooo@+oooo++++++++++++++++++++ooo+++++++++++oooooo++++++++oooooo++++ooooooooooo+++%X",
"              %%%@@++++++++++oo+++oooooo+++ooooo@+oooo++++++++++++++++++++ooo$++++++++oooooooooo++++oooooooooo++ooooooooooo$++%X",
"              %%%@++++++++++ooo+++oooooooooooooo@+oooo++++++++++++++++++++ooo$+++++++oooooooooooo++oooooooooooo+ooooooooooo%++%X",
"              %%%@++++++++++ooo+++oooooooooooooo@+oooo+++oo+++++++++++++++ooo$+++++++oooo%%$$oooo$+oooo%%$$oooo%+$$$ooo&%$%&++%X",
"              %%%+++++++++++ooo+++oooooooooooooo@+oooo+++ooo++++++++++++++ooo$+++++++ooo%&++++ooo$+ooo%&++++ooo%++++ooo%++++++%X",
"              %%%+++++++++++ooo+++oooooooooooooo@+oooo+++ooo++++++++++++++ooo$+++++++ooo%+++++ooo$+oooo++++++%%%++++ooo$++++++%X",
"              %%%+++++++++++oooo@+oooooooooooooo@+oooo@++ooo++++++++++++++ooo$+++++++ooo$+++++ooo$+ooooooooo++++++++ooo$++++++%X",
"              %$%++$++++++++oooo@+oooooooooooooo@+oooo@++ooo++++++++++++++ooo$+++++++ooo$+++++ooo$++oooooooooo++++++ooo$++++++%X",
"              $$$++$++++++++oooo@+oooooooooooooo$+oooo@++ooo++++++++++++++ooo$+++++++ooo$+++++ooo$+++$ooooooooo+++++ooo$++++++%X",
"              $$$$$$++++++++oooo$+oooooooooooooo$+oooo@++ooo++++++++++++++ooo$+++++++ooo$+++++ooo$+++++$$$$oooo$++++ooo$++++++%X",
"              $$$$$+++++++++oooo$+oooooooooooooo$+oooo$++ooo++++++++++++++ooo$+++++++ooo$+++++ooo$+ooo++++++ooo$++++ooo$++++++%X",
"              $$$$$+++++++++oooo%+oooooooooooooo$+oooo$++ooo++++++++++++++ooo$+++++++oooo++++oooo%+oooo++++oooo$++++ooo$++++++%X",
"              $$$$++++++++++oooo%+oooooooooooooo$+oooo$++oooo+++++++++++++oooooooooo+oooooooooooo%+oooooooooooo%++++ooo$++++++%X",
"              $$$$++++++oo@+oooo%+oooooo@ooooooo$+oooo$@@oooo@@@@@@@@@++++oooooooooo$+oooooooooo&%++oooooooooo&%++++ooo$++++++%X",
"             $$$$+++++++oo@+oooo%+oooooo$@oooooo$+oooo$@@oooo@@@@@@@@@++++oooooooooo%++$oooooo%&&++++$oooooo%&&+++++ooo%++++++%X",
"             $%%%++++++ooo@+oooo%+oooooo$@oooooo$+oooo$@@ooooo@@@@@@@@@@+++$$$$$$$$%%++++$$$$%%++++++++$$$%%%++++++++$%&++++++%X",
"             $%%+++++++ooo$+oooo%+oooooo$@oooooo$+oooo$@@ooooooo@@@@@@@@@@@+++++++++++++++++++++++++++++++++++++++++++++++++++%X",
"             %%%++++++oooo$+oooo%@oooooo$@ooooo$$+oooo$@@oooooooo@@@@@@@@@@@++++++++++++++++++++++++++++++++++++++++++++++++++%X",
"            %%%+++++++oooo%+ooo$%+oooooo$@oooo%$@@ooo$@@@oooooooo@@@@@@@@@@@++++++++++++++++++++++++++++++++++++++++++++++++++%X",
"            %%%+++++++oooo%++oo@@+@ooooo$@@oo&$@@@ooo$@@@ooo&@ooo@@@@@@@@@@@@@@+++++++++++++++++++++++++++++++++++++++++++++++%X",
"            %%++++++++ooo%++@o&@@@@ooooo%@@@@@@@@@@o&@@@@oo$@@@@@@@@@@@@@@@@@@@@++++++++++++++++++++++++++++++++++++++++++++++%X",
"           $%+++++++++oo&++@@@@@@@@@ooo%$@@@@@@@@@@@@@@@@@@@@@@@@@@@@@$@@@@@@@@@@+++++++++++++++++++++++++++++++++++++++++++++%X",
"           $%+++++++++++++@@@@@@@@@@@o&$@@@@@@@@@@@@@@@@@@@@@@@@@@@@@$$$@@@@@@@@@@@+++++++++++++++++++++++++++++++++++++++++++%X",
"           $%+++++++++++++@@@@@@@@@@@@@@@@@@@@@@@@@@@@@@@@@@@@@@@@@$$$$@@@@@@@@@oo@oooo++oo++oooo+++ooo++ooooo+oooo++o+++o++++%X",
"       $$  $$+++++++++++@@@@@@@@@@@@@@@@@@@@@@@@@@@@@@@@@@@@@@@@@@@$$$$@@@@@@@@@o@@o+++o++o++o+++o+o+++o+++o+++o+++o+o+++o++++%X",
"   %+++$XX $$+@@@@@@@@@@@@@@@@@@@@@@@@@@@@@@@@@@@@@@@@@@@@@@@@@@@@$$$$@@@@@@@@@@o@@o+++o++o++o+++o+ooooo+++o+++o+++o++o+o+++++%X",
" %%&&++$X  $$$@@@@@@@@@@@@@@@@@@@@@@@@@@@@@@@@@@@@@@@@@@@@@@@@@@@@$$@@@@@@@@@@@@o++oooo+++o++oooo++o+++++++o+++oooo++++o+++++$%X",
"%++++$$XX  $$$@@@@@@@@@@@@@@@@@@@@@@@@@@@@@@@@@@@@@@@@@@@@@@@@@@@@@@@@@@$$$$$$$$oo$o$$$o$oo++o+++o++oooo+++o+++o+++o+++o+++$$$%X",
"%++++$$X   $$$$@@@@@@@@@@@@@@@@@@@@@@@@@@@@@@@@@@@@@@@@@@@@@@@@@@@@@@@$$$$$$$$$$$$$$$$$$$+++++++++++++++++++++++++++++++++$$&$%X",
"+++@$XXX   $$$$$@@@@@@@@@@@@@@@@@@@@@@@@@@@@@@@@@@@@@@@@@@@@@@@@@@@$$$$$$$$$$$$$$$$$$$$$$$$$$$$$$$$$$$$$$$$$$$$$$$+++++++$$$$$XX",
" XXXXX      $$$$$@@@@@@@@@@@@@@$$$$$$$$$$$$$$$$$$$$$$$$$$$$$$$$$$$$$$$$$$$$$$$$$$$$$$$$$$$$$$$$$$$$$$$$$$$$$$$$$$$$$$$$$$$$$$%X ",
"            $$$$$$$$$@@@@$$$$$$$$$$$$$$$$$$$$$$$$$$$$$$$$$$$$$$$$$$$$$$$$$$$$$$$$$$$$$$$$$$$$$$$$$$$$$$$$$$$$$$$$$$$$$$$$$$$%XX ",
"             $$$$$$%%%%%%%%%%%%%%%%%%%%%%%%%%%%%%%%%%%%%%%%%%%%%%%%%%%%%%%%%%%%%%%%%%%%%%%%%%%%%%%%%%%%%%%%%%%%%%%%%%%%%%%%%XX  ",
"               $$$$$%%%%%%%%%%%%%%%%%%%%%%%%%%%%%%%%%%%%%%%%%%%%%%%%%%%%%%%%%%%%%%%%%%%%%%%%%%%%%%%%%%%%%%%%%%%%%%%%%%%%%%XXX   ",
"                     XXXXXXXXXXXXXXXXXXXXXXXXXXXXXXXXXXXXXXXXXXXXXXXXXXXXXXXXXXXXXXXXXXXXXXXXXXXXXXXXXXXXXXXXXXXXXXXXXXXXXX     "
};
