/* XPM */
static char *bcc43c1c806246c5cd7feba53957bfd57xfWiGn7GaKAA1MD[] = {
/* columns rows colors chars-per-pixel */
"128 64 59 1 ",
"  c None",
". c black",
"X c #2A1A15",
"o c #2B1A15",
"O c #001828",
"+ c #031928",
"@ c #0E1F2F",
"# c #5D2D1F",
"$ c #142A46",
"% c #132D50",
"& c #0E5F4F",
"* c #0F5F4F",
"= c #0E5F50",
"- c #10604F",
"; c #197D49",
": c #1A7D49",
"> c #197D4A",
", c #1A7D4A",
"< c #197E4A",
"1 c #1A7E4A",
"2 c #1B7E4A",
"3 c #1C7E4A",
"4 c #1A7F4C",
"5 c #0E6050",
"6 c #106050",
"7 c #116150",
"8 c #1E457D",
"9 c #9C411F",
"0 c #BD5426",
"q c #BE5426",
"w c #77B53C",
"e c #77B53D",
"r c #77B63E",
"t c #78B53D",
"y c #78B63D",
"u c #79B63D",
"i c #78B73D",
"p c #79B73D",
"a c #78B73F",
"s c #4B9844",
"d c #4B9945",
"f c #4B9946",
"g c #4C9844",
"h c #4D9945",
"j c #4C9A45",
"k c #4E9A45",
"l c #4C9A46",
"z c #8FC535",
"x c #91C735",
"c c #90C536",
"v c #EFA152",
"b c #B8F87C",
"n c #B8F97D",
"m c #BAF97C",
"M c #BBFA7C",
"N c #BAFB7D",
"B c #3B79F6",
"V c #5CBCF9",
"C c #FFE381",
/* pixels */
"                                            5cc                                                                                 ",
"                                           5cca       a                                                                         ",
"     b                                    5caaa     aaa                                                                         ",
"     bc                               >555caaa     aaaa3                                                                        ",
"     bbz       c                    bb>55ccajj    aajab33                                                                       ",
"     bbz       bc                  cba555>ajj>   jjvvvvvvvq                                                                     ",
"     bzze      bc                  bca55aajj>  vvvvvvvvv88.                                                                     ",
"      zzee     caa                 iaj5>>jj>>vvvvvv%%%8888V.8                                                                   ",
"      bzee     caaj          c     aaj>>jj>vvvvv%%%%%%888VVV8                                                                   ",
"      bzeea    caajj         b    jaaj...vvvvv%%%%%%@@@@88VV8jjjjjjjjjjjjjjjjjjjjjjjjjjjjjjjjjjjjjjjjjjjjjjjjjjjjjjjjjjjjjj     ",
"      bzeee=   caajj5        b   >ja..>>vvvv%%%%%%@@@@@@@@888>>>>>>>>>>>>>>>>>>>>>>>>>>>>>>>>>>>>>>>>>>>>>>>>>>>>>>>>>>>>>>jj   ",
"      bzeee>5  caajj5       cc  >>>.sj>vvv..%%%%%@@@@@@@@@@888>>>>>>>>>>>>>>>>>>>>>>>>>>>>>>>>>>>>>>>>>>>>>>>>>>>>>>>>>>>>>>>5  ",
"      zzees>555caajb55   >  ba55>>>j>vvCC.%%%%%@@@@@@@@@@@@888>>>>>>>>>>>>>>>>>>>>>>>>>>>>>>>>>>>>>>>>>>>>>>>>>>>>>>>>>>>>>>>5O ",
"      =zeess>55caaaj555 j> bca5>>>>>CCCC%%%%%B@@@@@@@@@@@@@@8V>>>>>>>>>>>>>>>>>>>>>>>>>>>>>>>>>>>>>>>>>>>>>>>>>>>>>>>>>>>>>>>>5O",
"      =zzesjj555aaaj555 >>5baa>>>>aCCvv%%%BBB@@@@@@@@@@@@@@@88>>>>>>>>>>>>>>>>>>>>>>>>>>>>>>>>>>>>>>>>>>>>>>>>>>>>>>>>>>>>>>>>5O",
"   b   zzejjj>55aaaj>55j>5bbaa>>>>avvv@%%%BBB@@@@@@@@@@@@@@@@88>>>>>>>>>>>>>>>>>>>>>>>>>>>>>>>>>>>>>>>>>>>>>>>>>>>>>>>>>>>>>>>5O",
"   bb& &easjjj55ajaj>55j5>baaj>>>>avvv@%%%BB@$@@@@@@@@@@@@@@@88>>>>>>>>>>>>>>>>>>>>>>>>>>>>>>>>>>>>>>>>>>>>>>>>>>>>>>>>>>>>>>>5O",
"   >ba66sajjjj55>jajjc5jj>baaj>>>aavvq@%%%%%$$@@@@@@@@@@@@@@@8V@>>>>>>>>>>>>>>>>>>>>>>>>>>>>>>>>>>>>>>>>>>>>>>>>>>>>>>>>>>>>>>5O",
"    baa6>ajjjj>5>jabj55jj>caaj>>>aavqqq@%%%%$$@@@@@@@@@@@@@@@8V@>>>X>>>>>>>>>>>>>>>>>>>>>>>>>>>>>>>>>>>>>>>>>>>>>>>>>>>>>>>>>>5O",
"    >ee&4ajjjjj>5>5jj55jj>caajj>>aaqqqv@%%%%$$@@@@@@@@@@@@@@@8V@@>>XXX>>>>>>>>>>>>>>>>>>>>>>>>>>>>>>>>>>>>>>>>>>>>>>>>>>>>>>>>5O",
"     ee&&>sjjjj>>55jb55jj>aajjj>>aajqvq@%%%%$$@@@@@@@@@@@@@@@8@@@>>XXX>>>>>>>>>>>>>>>>>>>>>>>>>>>>>>>>>@>>>>@>>@@@@>>@>>>>@>>>5O",
"     aaa->>sjjjj>55>j555j>aajjj>>aajqvq@@%BB$$@@@@@@@@@@@@@@@@@@@>>XXX>>>>>>>>>>>>>>>>>>>>>>>>>>>>>>>>>@j>>>@j@baaj@>@j>>>@j>>5O",
"      aa&>>>jjjj>>5>j5>>j>aajj>>aaajjqqq@%BB$$@@@@@@@@@@@@@@@.@@@>>q##>>>>>>>>>>>>>>>>>>>>>>>>>>>>>>>>>@j>>>@j@a>>>@j@j>>>@j>>5O",
"      eej&>>5jjja>55>5>>j5aajj>>>aajjqqq@%%B$$$@@@@@@@@@@@@@@@@@>>qqq#>>>>>>>>>>>>>>>>>>>>>>>>>>>>>>>>>>@@@@@j@a>>>@j@j>>>@j>>5O",
"      aajj>>55jja>55j555>5aajj>>>ajj>qqqq%%$$$$@@@@@@@@@@@@@@@@>qq9##>>>>>>>>>>>>>>>>>>>>>>>>>>>>>>>>>>>>jaj@j@j>>>@j@j>>>@j>>5O",
"      >aejj>55jaa>555j>555aajjj>>ajj>>qq9@$$$$$$@@@@@@@@@@@@@@#99q##>>>>>>>>>>>>>>>>>>>>>>>>>>>>>>>>>>>@>>>>@a@j>>>@a@j>>>@a>>5O",
"       ees>>>55aaa555>j555a>jjj>>ajj>>>9q@$$$$$$$$@@@@@@@@@.#######>>>>>>>>>>>>>>>>>>>>>>>>>>>>>>>>>>>>>@@@@ba>@@@@ba>@@@@ba>>5O",
"       eesjj>555aa5555jj55ajjjj>>ajj>>>999@$$$$$$$$$@.@@####.#####>>>>>>>>>>>>>>>>>>>>>>>>>>>>>>>>>>>>>>>jjaa>>>jjaa>>>jjaa>>>5O",
"        ejjj>>55aa5555>jj5ajjjj>>aj>>>>>999$$$$$$$$$$@######.###>>>>>>>>>>>>>>>>>>>>>>>>>>>>>>>>>>>>>>>>>>>>>>>>>>>>>>>>>>>>>>5O",
"        ajjj>>555a555>5>j>ajjjj>>jj>>>>>999@@$$$$$$.@####q99.##>>>>>>>>>>>>>@@@>>>>>@@@>>>>>@@@>>>>>@@@@@@>>>>>@@@>>>>>>@@@>>>5O",
"         jjjj>555555555>>jajjjj>>>j>>>>>>999#@@@.@####qqq9#.V.>>>>>>>>>>>>>>@@@a>>>>@@@i>>>>@@@a>>@@@@@@@@@@>>>@@@s>>>>>@@@j>>5O",
"         >jjj>>5>5j5555>>>ajjjj>>>j>>>>>>>9##@@#####qqq99.....>>>>>>>>>>>>>>@@@j>>>>@@@j>>>>@@@j>@@@@@@@@@@@@>>@@@@>>>>>@@@j>>5O",
"         >>jj>>5jjj5>5>>>>ajjjj>>>>>>>>>vvv9#...##qqq99.......>>>>>>>>>>>>>>@@@s>>>>@@@s>>>>@@@j>@@@@aajj@@@@j>@@@@s>>>>@@@j>>5O",
"          >jjj>5jjjj>5>>>>jjjjj>>>>>>>>vvvq99##...qq9........##>>qqqq#..>>>>@@@s>>>>@@@s>>>>@@@j>@@@ab>>>>@@@j>@@@@@>>>>@@@j>>5O",
"          >>>j>5jjjjj55>>>jjjjj>>>>>>>Cvqq99###99..B.......9###99qqqq#..>>>>@@@s>>>>@@@s>>>>@@@j>@@@a>>>>>@@@j>@@@@@@>>>@@@j>>5O",
"jj>>>5555>>>>j>5jjjjj55>>>jjjjj>>>>>>CCv99#####q99.......999##999qqqq#..>>>>@@@s>>>>@@@s>>>>@@@j>@@@j>>>>>@@@j>@@@@@@@>>@@@j>>5O",
"baa>>>555>>>>>>5>jjj>55a>>>>jj>>>>>>>vvq9######999.....9999###999#####..>>>>@@@s>>>>@@@s>>>>@@@j>@@@j>>>>>@@@j>@@@s@@@@>@@@j>>5O",
" baa>>>555>>>>>5>>jj>55aj>>>jj>>>>>>>vq9##>>#####....q9999###XXXX>>>>>>>>>>>@@@j>>>>@@@j>>>>@@@j>@@@j>>>>>@@@j>@@@j>@@@@@@@j>>5O",
" abaa>>>55555>>5>>j>>5>aj>>>>jj>>>>>>qv9#>>>>......qqq999##XXXX>>>>>>>>>>>>>@@@s>>>>@@@j>>>>@@@j>@@@j>>>>>@@@j>@@@j>>@@@@@@j>>5O",
"  aaaj>>>>555>>5>>jj>5>aaa>>>jj>>>>>>v99>>>>>>...qqqq99###XXX>>>>>>>>>>>>>>>@@@s>>>>@@@s>>>>@@@j>@@@j>>>>>@@@j>@@@j>>>@@@@@j>>5O",
"   aaaj>>>>55555>>>j>5>aaa>>>>>>>>>>X#99>>>>>>.9qqqq99##XXX>>>>>>>>>>>>>>>>>@@@@>>>@@@@@>>>@@@@i>@@@@>>>>@@@@a>@@@j>>>>@@@@j>>5O",
"   aaajjj>>>5555>>>>>5>aaajj>>>>>>>>XXXX>>>>>>##9999##XXXX>>>>>>>>>>>>>>>>>>@@@@@@@@@@@@@@@@@@@i>@@@@@@@@@@@@a>@@@j>>>>@@@@j>>5O",
"    aajjj>>>>5555>>>>>>aaajj>>>>>>>>XXXX>>>>>>######XXXX>>>>>>>>>>>>>>>>>>>>>@@@@@@@@@@@@@@@@@ba>>@@@@@@@@@@ba>@@@a>>>>>@@@a>>5O",
"    >aajjj>>>>555>>>>>>aaajjj>>>>>>>>>X>>>>>>>XXXXXXXX>>>>>>>>>>>>>>>>>>>>>>>>@@@@@@@b@@@@@@@bb>>>>j@@@@@@aNb>>@@@a>>>>>@@@a>>5O",
"    >>ajjjj>>>>555>>>>>aaajjj>>>>>>>>>>>>>>>>>>vq#X>>>>>>>>>>>>>>>>>>>>>>>>>>>>jjjjaaa>jjjjaaa>>>>>>>jjjjii>>>>>jib>>>>>>jab>>5O",
"      ajjjjj>>>>>55>>>>aaajjjj>>>>>>>>>>>>>>>>vvqq#>>>>>>>>>>>>>>>>>>>>>>>>>>>>>>>>>>>>>>>>>>>>>>>>>>>>>>>>>>>>>>>>>>>>>>>>>>>5O",
"      ajjjjjj>>>>55>>>>aaajjjj>>>>>>>>>>>>>>>>vvvq#>>>>>>>>>>>>>>>>>>>>>>>>>>>>>>>>>>>>>>>>>>>>>>>>>>>>>>>>>>>>>>>>>>>>>>>>>>>5O",
"       >jjjjjj>>>>55>>>aaajjjj>>>>>>>>>>>>>>>vvqq#>>>>>>>>>>>>>>>>>>>>>>>>>>>>>>>>>>>>>>>>>>>>>>>>>>>>>>>>>>>>>>>>>>>>>>>>>>>>5O",
"         >jjjjj>>>>5>>>>iiijjj>>>>>>>>>>>>>.vvqqq#>>>>>>>>>>>>>>>>>>>>>>>>>>>>>>>>>>>>>>>>>>>>>>>>>>>>>>>>>>>>>>>>>>>>>>>>>>>>5O",
"           >jjj>>>>>>>>>jiajjj>>>>>>>>>>>>>..qqq#>>>>>>>>>>>>>>>>>>>>>>>>>>>>>>>>>>>>>>>>>>>>>>>>>>>>>>>>>>>>>>>>>>>>>>>>>>>>>5O",
"     a5      >>>>>>>>>>>jajjjj>>>>>>>>>>>>>....#>>>>>>>>>>>>>>>>>>>>>>>>>>>>>>>>>>>>>>>>>>>>>>>>>>>>>>>>>>>>>>>>>>>>>>>>>>>>>>5O",
"     aaaa>   >>>>>>>>>>>>ajjjjj>>>>>>>>>>>>>>..>>>>>>>>>>>>>>>>>>>>>>>>>>>>>>>>>>>>>>>>>>>>>>>>>>>>>>>>>>>>>>>>>>>>>>>>>>>>>>>5O",
"      aaaaaj>>>>>>>>>>>>>>jjjjj>>>>>>>>>>>>>>>>>>>>>>>>>>>>>>>>>>>>>>>>>>>>>>>>>@@>@@@@>>@@>>@@@@>>>@@@>>@@@@@>@@@@>>@>>>@>>>>5O",
"       aaaajjj>>>>>>>>>>>>>jjjj>>>>>>>>>>>>>>>>>>>>>>>>>>>>>>>>>>>>>>>>>>>>>>>>>@>>@>>>@>>@>>@>>>@>@>>>@>>>@>>>@>>>@>@>>>@>>>>5O",
"       >aaaaajj>>>>>>>>>>>>>jjj>>>>>>>>>>>>>>>>>>>>>>>>>>>>>>>>>>>>>>>>>>>>>>>>>@>>@>>>@>>@>>@>>>@>@@@@@>>>@>>>@>>>@>>@>@>>>>>5O",
"        >jaaaajjj>>>>>>>>>>>>>j>>>>>>>>>>>>>>>>>>>>>>>>>>>>>>>>>>>>>>>>>>>>>>>>>@>>@@@@>>>@>>@@@@>>@>>>>>>>@>>>@@@@>>>>@>>>>>>5O",
"         >aaaajjjj>>>>>>>>>>>>>>>>>>>>>>>>>>>>>>>>>>>>>>>>>>>>>>>>>>>>>>>>>>>>>>@@>@>>>@>@@>>@>>>@>>@@@@>>>@>>>@>>>@>>>@>>>>>>5O",
"           ajajjjjj>>>>>>>>>>>>>>>>>>>>>>>>>>>>>>>>>>>>>>>>>>>>>>>>>>>>>>>>>>>>>>>>>>>>>>>>>>>>>>>>>>>>>>>>>>>>>>>>>>>>>>>>>>>5O",
"          >>jajjjjjj>>>>>>>>>>>>>>>>>>>>>>>>>>>>>>>>>>>>>>>>>>>>>>>>>>>>>>>>>>>>>>>>>>>>>>>>>>>>>>>>>>>>>>>>>>>>>>>>>>>>>>>>>5OO",
"            >aajjjjjj>>>>>>>>>>>>>>>>>>>>>>>>>>>>>>>>>>>>>>>>>>>>>>>>>>>>>>>>>>>>>>>>>>>>>>>>>>>>>>>>>>>>>>>>>>>>>>>>>>>>>>>>5O ",
"            >>jjjjjjj>>>>>>>>>>>>>>>>>>>>>>>>>>>>>>>>>>>>>>>>>>>>>>>>>>>>>>>>>>>>>>>>>>>>>>>>>>>>>>>>>>>>>>>>>>>>>>>>>>>>>>>5OO ",
"             >>jjjjjjj>>>>>>>>>>>>>>>>>>>>>>>>>>>>>>>>>>>>>>>>>>>>>>>>>>>>>>>>>>>>>>>>>>>>>>>>>>>>>>>>>>>>>>>>>>>>>>>>>>>>55OO  ",
"               >>>>>jj5555555555555555555555555555555555555555555555555555555555555555555555555555555555555555555555555555OOO   ",
"                     OOOOOOOOOOOOOOOOOOOOOOOOOOOOOOOOOOOOOOOOOOOOOOOOOOOOOOOOOOOOOOOOOOOOOOOOOOOOOOOOOOOOOOOOOOOOOOOOOOOOOO     "
};
