/* XPM */
static char *_ad7b42949b643d3ba80665c4a2e53eftJi8zvF11PQomKNd[] = {
/* columns rows colors chars-per-pixel */
"12 120 2 1 ",
"  c None",
"3 c white",
/* pixels */
"      33    ",
"      33    ",
"    33  33  ",
"    33  33  ",
"    33  33  ",
"    33  33  ",
"    33  33  ",
"    33  33  ",
"    33  33  ",
"    33  33  ",
"      33    ",
"      33    ",
"      33    ",
"      33    ",
"    3333    ",
"    3333    ",
"      33    ",
"      33    ",
"      33    ",
"      33    ",
"      33    ",
"      33    ",
"    333333  ",
"    333333  ",
"      33    ",
"      33    ",
"    33  33  ",
"    33  33  ",
"        33  ",
"        33  ",
"      33    ",
"      33    ",
"    33      ",
"    33      ",
"    333333  ",
"    333333  ",
"    3333    ",
"    3333    ",
"        33  ",
"        33  ",
"      33    ",
"      33    ",
"        33  ",
"        33  ",
"        33  ",
"        33  ",
"    3333    ",
"    3333    ",
"    33  33  ",
"    33  33  ",
"    33  33  ",
"    33  33  ",
"    33  33  ",
"    33  33  ",
"      3333  ",
"      3333  ",
"        33  ",
"        33  ",
"        33  ",
"        33  ",
"    333333  ",
"    333333  ",
"    33      ",
"    33      ",
"    3333    ",
"    3333    ",
"        33  ",
"        33  ",
"        33  ",
"        33  ",
"    3333    ",
"    3333    ",
"      3333  ",
"      3333  ",
"    33      ",
"    33      ",
"    3333    ",
"    3333    ",
"    33  33  ",
"    33  33  ",
"    33  33  ",
"    33  33  ",
"      33    ",
"      33    ",
"    333333  ",
"    333333  ",
"        33  ",
"        33  ",
"        33  ",
"        33  ",
"      33    ",
"      33    ",
"    33      ",
"    33      ",
"    33      ",
"    33      ",
"      33    ",
"      33    ",
"    33  33  ",
"    33  33  ",
"      33    ",
"      33    ",
"    33  33  ",
"    33  33  ",
"    33  33  ",
"    33  33  ",
"      33    ",
"      33    ",
"      33    ",
"      33    ",
"    33  33  ",
"    33  33  ",
"    33  33  ",
"    33  33  ",
"      3333  ",
"      3333  ",
"        33  ",
"        33  ",
"    3333    ",
"    3333    "
};
